<svg viewBox="0 0 1160 500" xmlns="http://www.w3.org/2000/svg">
  <defs>
    <marker id="ar1" viewBox="0 0 10 10" refX="9" refY="5" markerWidth="7" markerHeight="7" orient="auto-start-reverse"><path d="M 0 1 L 10 5 L 0 9 z" fill="#d97706"/></marker>
    <marker id="ar2" viewBox="0 0 10 10" refX="9" refY="5" markerWidth="7" markerHeight="7" orient="auto-start-reverse"><path d="M 0 1 L 10 5 L 0 9 z" fill="#db2777"/></marker>
  </defs>
  <style>
  /* Light theme (default) */
  .title-text { fill: #1e293b; }
  .subtitle-text { fill: #475569; }
  .label-text { fill: #334155; }
  .icon-fill { fill: #0379ab; }
  .flow-label { fill: #64748b; }
  .ip-bg-client { fill: #475569; }
  .ip-bg-proxy { fill: #2563eb; }
  .ip-bg-res { fill: #15803d; }
  .ip-bg-target { fill: #059669; }
  .ip-text { fill: #ffffff; }
  .badge-text { fill: #92400e; }
  .badge-text-purple { fill: #5b21b6; }
  .badge-text-blue { fill: #0c4a6e; }
  .target-sub { fill: #64748b; }
  .conn-line { stroke: #94a3b8; }
  .conn-line-orange { stroke: #fdba74; }
  .conn-line-purple { stroke: #c4b5fd; }
  .conn-line-cyan { stroke: #67e8f9; }
  .conn-line-green { stroke: #86efac; }
  .conn-line-amber { stroke: #fde68a; }
  .residential-label { fill: #15803d; }

  /* Dark theme */
  @media (prefers-color-scheme: dark) {
    .title-text { fill: #aaafb6; }
    .subtitle-text { fill: #94a3b8; }
    .label-text { fill: #cbd5e1; }
    .icon-fill { fill: #0379ab; }
    .flow-label { fill: #94a3b8; }
    .ip-bg-client { fill: #475569; }
    .ip-bg-proxy { fill: #3b82f6; }
    .ip-bg-res { fill: #16a34a; }
    .ip-bg-target { fill: #059669; }
    .ip-text { fill: #ffffff; }
    .badge-text { fill: #92400e; }
    .badge-text-purple { fill: #5b21b6; }
    .badge-text-blue { fill: #0c4a6e; }
    .target-sub { fill: #94a3b8; }
    .conn-line { stroke: #475569; }
    .conn-line-orange { stroke: #c2410c; }
    .conn-line-purple { stroke: #7c3aed; }
    .conn-line-cyan { stroke: #0891b2; }
    .conn-line-green { stroke: #059669; }
    .conn-line-amber { stroke: #b45309; }
    .residential-label { fill: #15803d; }
  }
</style>

  <text x="580" y="24" text-anchor="middle" font-family="system-ui, -apple-system, sans-serif" font-size="16" class="title-text" font-weight="700">Residential Proxy</text>
  <text x="580" y="40" text-anchor="middle" font-family="system-ui, sans-serif" font-size="9" class="subtitle-text" font-weight="400">Traffic exits through real Home PCs — targets see residential IPs, not datacenter IPs</text>

  <!-- Dashed connection lines: consumers -> gateway -->
  <path d="M139,155 C210,155 270,200 318,240" fill="none" class="conn-line-amber" stroke-width="1.5" stroke-dasharray="6,3" marker-end="url(#ar1)"/>
  <path d="M139,325 C210,325 270,280 318,240" fill="none" class="conn-line-amber" stroke-width="1.5" stroke-dasharray="6,3" marker-end="url(#ar1)"/>

  <!-- Dashed connection lines: gateway -> home PCs -->
  <path d="M382,240 C430,180 520,105 571,85" fill="none" class="conn-line-amber" stroke-width="1.5" stroke-dasharray="6,3" marker-end="url(#ar1)"/>
  <path d="M382,240 L571,240" fill="none" class="conn-line-amber" stroke-width="1.5" stroke-dasharray="6,3" marker-end="url(#ar1)"/>
  <path d="M382,240 C430,300 520,375 571,395" fill="none" class="conn-line-amber" stroke-width="1.5" stroke-dasharray="6,3" marker-end="url(#ar1)"/>

  <!-- Dashed connection lines: home PCs -> targets -->
  <path d="M629,85 C680,85 790,135 838,155" fill="none" class="conn-line-amber" stroke-width="1.2" stroke-dasharray="6,3"/>
  <path d="M629,85 C680,105 790,285 838,325" fill="none" class="conn-line-amber" stroke-width="1.0" stroke-dasharray="6,3"/>
  <path d="M629,240 C680,220 790,195 838,155" fill="none" class="conn-line-amber" stroke-width="1.0" stroke-dasharray="6,3"/>
  <path d="M629,240 C680,260 790,285 838,325" fill="none" class="conn-line-amber" stroke-width="1.2" stroke-dasharray="6,3"/>
  <path d="M629,395 C680,375 790,195 838,155" fill="none" class="conn-line-amber" stroke-width="1.0" stroke-dasharray="6,3"/>
  <path d="M629,395 C680,395 790,345 838,325" fill="none" class="conn-line-amber" stroke-width="1.2" stroke-dasharray="6,3"/>

  <!-- Animated path 1: Consumer 1 -> Gateway -> Home PC US -> Target Website -->
  <circle r="4" fill="#d97706" opacity="0.85"><animateMotion dur="1.5s" begin="0s" repeatCount="indefinite" path="M139,155 C210,155 270,200 318,240"/></circle>
  <circle r="2.5" fill="#fbbf24" opacity="0.85"><animateMotion dur="1.5s" begin="0.2s" repeatCount="indefinite" path="M139,155 C210,155 270,200 318,240"/></circle>
  <circle r="4" fill="#d97706" opacity="0.85"><animateMotion dur="1.5s" begin="1.7s" repeatCount="indefinite" path="M382,240 C430,180 520,105 571,85"/></circle>
  <circle r="2.5" fill="#fbbf24" opacity="0.85"><animateMotion dur="1.5s" begin="1.9s" repeatCount="indefinite" path="M382,240 C430,180 520,105 571,85"/></circle>
  <circle r="4" fill="#d97706" opacity="0.85"><animateMotion dur="1.5s" begin="3.4s" repeatCount="indefinite" path="M629,85 C680,85 790,135 838,155"/></circle>
  <circle r="2.5" fill="#fbbf24" opacity="0.85"><animateMotion dur="1.5s" begin="3.6s" repeatCount="indefinite" path="M629,85 C680,85 790,135 838,155"/></circle>

  <!-- Animated path 2: Consumer 2 -> Gateway -> Home PC RU -> Target Mobile -->
  <circle r="4" fill="#d97706" opacity="0.85"><animateMotion dur="1.5s" begin="5.5s" repeatCount="indefinite" path="M139,325 C210,325 270,280 318,240"/></circle>
  <circle r="2.5" fill="#fbbf24" opacity="0.85"><animateMotion dur="1.5s" begin="5.7s" repeatCount="indefinite" path="M139,325 C210,325 270,280 318,240"/></circle>
  <circle r="4" fill="#d97706" opacity="0.85"><animateMotion dur="1.5s" begin="7.2s" repeatCount="indefinite" path="M382,240 C430,300 520,375 571,395"/></circle>
  <circle r="2.5" fill="#fbbf24" opacity="0.85"><animateMotion dur="1.5s" begin="7.4s" repeatCount="indefinite" path="M382,240 C430,300 520,375 571,395"/></circle>
  <circle r="4" fill="#d97706" opacity="0.85"><animateMotion dur="1.5s" begin="8.9s" repeatCount="indefinite" path="M629,395 C680,395 790,345 838,325"/></circle>
  <circle r="2.5" fill="#fbbf24" opacity="0.85"><animateMotion dur="1.5s" begin="9.1s" repeatCount="indefinite" path="M629,395 C680,395 790,345 838,325"/></circle>

  <!-- Animated path 3: Consumer 1 -> Gateway -> Home PC CN -> Target Mobile -->
  <circle r="4" fill="#d97706" opacity="0.85"><animateMotion dur="1.5s" begin="11s" repeatCount="indefinite" path="M382,240 L571,240"/></circle>
  <circle r="2.5" fill="#fbbf24" opacity="0.85"><animateMotion dur="1.5s" begin="11.2s" repeatCount="indefinite" path="M382,240 L571,240"/></circle>
  <circle r="4" fill="#d97706" opacity="0.85"><animateMotion dur="1.5s" begin="12.7s" repeatCount="indefinite" path="M629,240 C680,260 790,285 838,325"/></circle>
  <circle r="2.5" fill="#fbbf24" opacity="0.85"><animateMotion dur="1.5s" begin="12.9s" repeatCount="indefinite" path="M629,240 C680,260 790,285 838,325"/></circle>

  <!-- Pulsing glow at Home PCs (exit nodes) -->
  <circle cx="600" cy="85" r="24" fill="#d97706" opacity="0"><animate attributeName="r" values="24;53;24" dur="2.5s" repeatCount="indefinite"/><animate attributeName="opacity" values="0.15;0;0.15" dur="2.5s" repeatCount="indefinite"/></circle>
  <circle cx="600" cy="240" r="24" fill="#d97706" opacity="0"><animate attributeName="r" values="24;53;24" dur="2.8s" repeatCount="indefinite"/><animate attributeName="opacity" values="0.15;0;0.15" dur="2.8s" repeatCount="indefinite"/></circle>
  <circle cx="600" cy="395" r="24" fill="#d97706" opacity="0"><animate attributeName="r" values="24;53;24" dur="3.1s" repeatCount="indefinite"/><animate attributeName="opacity" values="0.15;0;0.15" dur="3.1s" repeatCount="indefinite"/></circle>

  <!-- Consumer 1 -->
  <g transform="translate(110,155) scale(0.09) translate(-256,-256)" class="icon-fill">
    
      <g><path d="M468.672,176H347.328C323.44,176,304,195.44,304,219.328v249.344C304,492.56,323.44,512,347.328,512h121.344 C492.56,512,512,492.56,512,468.672V219.328C512,195.44,492.56,176,468.672,176z M480,468.672c0,6.256-5.072,11.328-11.328,11.328 H347.328c-6.256,0-11.328-5.072-11.328-11.328V219.328c0-6.256,5.072-11.328,11.328-11.328h121.344 c6.256,0,11.328,5.072,11.328,11.328V468.672z"/></g>
      <g><path d="M496,400H320c-8.848,0-16,7.168-16,16c0,8.832,7.152,16,16,16h176c8.848,0,16-7.168,16-16 C512,407.168,504.848,400,496,400z"/></g>
      <g><path d="M419.36,436.64c-5.92-5.92-16.976-5.92-22.72,0c-2.896,3.04-4.64,7.2-4.64,11.36c0,4.16,1.744,8.32,4.64,11.36 c3.024,2.88,7.2,4.64,11.36,4.64c4.16,0,8.32-1.76,11.36-4.64c2.88-3.04,4.64-7.2,4.64-11.36S422.24,439.68,419.36,436.64z"/></g>
      <g><path d="M463.424,0H48.176C22.512,0,0,22.32,0,47.76v291.696C0,364.432,21.152,384,48.176,384H320c8.848,0,16-7.168,16-16 c0-8.832-7.152-16-16-16H48.176C40.384,352,32,347.2,32,339.456V47.76C32,39.808,40.016,32,48.176,32h415.248 C471.648,32,480,39.952,480,47.76V208c0,8.832,7.152,16,16,16c8.848,0,16-7.168,16-16V47.76C512,22.32,489.296,0,463.424,0z"/></g>
      <g><path d="M176,352c-8.848,0-16,7.168-16,16v64c0,8.832,7.152,16,16,16c8.848,0,16-7.168,16-16v-64C192,359.168,184.848,352,176,352z"/></g>
      <g><path d="M320,416H128c-8.848,0-16,7.168-16,16c0,8.832,7.152,16,16,16h192c8.832,0,16-7.168,16-16 C336,423.168,328.848,416,320,416z"/></g>
      <g><path d="M320,288H16c-8.848,0-16,7.168-16,16c0,8.832,7.152,16,16,16h304c8.848,0,16-7.168,16-16C336,295.168,328.848,288,320,288z"/></g>
      <g><path d="M256,336c-8.848,0-16,7.168-16,16v16c0,8.832,7.152,16,16,16c8.848,0,16-7.168,16-16v-16C272,343.168,264.848,336,256,336z"/></g>

  </g>
  <text x="110" y="189" text-anchor="middle" font-family="system-ui, -apple-system, sans-serif" font-size="10" class="label-text" font-weight="600">Consumer 1</text>
  <g>
    <rect x="69" y="196" width="82" height="18" rx="3" class="ip-bg-client" opacity="0.92"/>
    <text x="110" y="209" text-anchor="middle" font-family="ui-monospace, monospace" font-size="9" class="ip-text" font-weight="600">203.0.113.5</text>
  </g>

  <!-- Consumer 2 -->
  <g transform="translate(110,325) scale(0.09) translate(-256,-256)" class="icon-fill">
    
      <g><path d="M468.672,176H347.328C323.44,176,304,195.44,304,219.328v249.344C304,492.56,323.44,512,347.328,512h121.344 C492.56,512,512,492.56,512,468.672V219.328C512,195.44,492.56,176,468.672,176z M480,468.672c0,6.256-5.072,11.328-11.328,11.328 H347.328c-6.256,0-11.328-5.072-11.328-11.328V219.328c0-6.256,5.072-11.328,11.328-11.328h121.344 c6.256,0,11.328,5.072,11.328,11.328V468.672z"/></g>
      <g><path d="M496,400H320c-8.848,0-16,7.168-16,16c0,8.832,7.152,16,16,16h176c8.848,0,16-7.168,16-16 C512,407.168,504.848,400,496,400z"/></g>
      <g><path d="M419.36,436.64c-5.92-5.92-16.976-5.92-22.72,0c-2.896,3.04-4.64,7.2-4.64,11.36c0,4.16,1.744,8.32,4.64,11.36 c3.024,2.88,7.2,4.64,11.36,4.64c4.16,0,8.32-1.76,11.36-4.64c2.88-3.04,4.64-7.2,4.64-11.36S422.24,439.68,419.36,436.64z"/></g>
      <g><path d="M463.424,0H48.176C22.512,0,0,22.32,0,47.76v291.696C0,364.432,21.152,384,48.176,384H320c8.848,0,16-7.168,16-16 c0-8.832-7.152-16-16-16H48.176C40.384,352,32,347.2,32,339.456V47.76C32,39.808,40.016,32,48.176,32h415.248 C471.648,32,480,39.952,480,47.76V208c0,8.832,7.152,16,16,16c8.848,0,16-7.168,16-16V47.76C512,22.32,489.296,0,463.424,0z"/></g>
      <g><path d="M176,352c-8.848,0-16,7.168-16,16v64c0,8.832,7.152,16,16,16c8.848,0,16-7.168,16-16v-64C192,359.168,184.848,352,176,352z"/></g>
      <g><path d="M320,416H128c-8.848,0-16,7.168-16,16c0,8.832,7.152,16,16,16h192c8.832,0,16-7.168,16-16 C336,423.168,328.848,416,320,416z"/></g>
      <g><path d="M320,288H16c-8.848,0-16,7.168-16,16c0,8.832,7.152,16,16,16h304c8.848,0,16-7.168,16-16C336,295.168,328.848,288,320,288z"/></g>
      <g><path d="M256,336c-8.848,0-16,7.168-16,16v16c0,8.832,7.152,16,16,16c8.848,0,16-7.168,16-16v-16C272,343.168,264.848,336,256,336z"/></g>

  </g>
  <text x="110" y="359" text-anchor="middle" font-family="system-ui, -apple-system, sans-serif" font-size="10" class="label-text" font-weight="600">Consumer 2</text>
  <g>
    <rect x="69" y="366" width="82" height="18" rx="3" class="ip-bg-client" opacity="0.92"/>
    <text x="110" y="379" text-anchor="middle" font-family="ui-monospace, monospace" font-size="9" class="ip-text" font-weight="600">192.168.1.10</text>
  </g>

  <!-- Master Gateway (Cloud Server) -->
  <g transform="translate(350,240) scale(0.09) translate(-256,-256)" class="icon-fill">
    
      <g><path d="M465.024,32H46.688C20.944,32,0,52.32,0,77.28v36.4C0,139.232,20.944,160,46.688,160H160c8.848,0,16-7.168,16-16 c0-8.832-7.152-16-16-16H46.688C38.72,128,32,121.44,32,113.68v-36.4C32,69.84,38.448,64,46.688,64h418.336 C473.28,64,480,69.968,480,77.28v36.4c0,7.632-7.008,14.32-14.976,14.32H288c-8.848,0-16,7.168-16,16c0,8.832,7.152,16,16,16 h177.024C490.48,160,512,138.784,512,113.68v-36.4C512,52.32,490.944,32,465.024,32z"/></g>
      <g><path d="M352,80H112c-8.848,0-16,7.168-16,16c0,8.832,7.152,16,16,16h240c8.848,0,16-7.168,16-16C368,87.168,360.848,80,352,80z"/></g>
      <g><path d="M75.792,84.784c-5.92-5.92-16.816-5.76-22.56,0c-3.04,2.88-4.64,7.04-4.64,11.36s1.6,8.48,4.64,11.36 c2.864,2.88,7.024,4.64,11.2,4.64c4.32,0,8.48-1.76,11.36-4.64c3.024-3.04,4.64-7.2,4.64-11.36 C80.432,91.984,78.816,87.824,75.792,84.784z"/></g>
      <g><path d="M460.272,84.784c-5.92-5.92-16.8-5.92-22.72,0c-2.88,3.04-4.64,7.2-4.64,11.36c0,4.16,1.76,8.32,4.64,11.36 c3.04,2.88,7.2,4.64,11.36,4.64c4.144,0,8.32-1.76,11.36-4.64c2.896-3.04,4.64-7.2,4.64-11.36 C464.912,91.984,463.168,87.824,460.272,84.784z"/></g>
      <g><path d="M411.952,84.784c-5.92-5.92-16.64-5.92-22.56,0c-3.056,3.04-4.8,7.2-4.8,11.36c0,4.16,1.76,8.32,4.8,11.36 c3.04,3.04,7.04,4.64,11.2,4.64c4.32,0,8.32-1.6,11.36-4.64c3.024-3.04,4.64-7.2,4.64-11.36 C416.592,91.984,414.976,87.824,411.952,84.784z"/></g>
      <g><path d="M465.024,192H400c-8.848,0-16,7.168-16,16c0,8.832,7.152,16,16,16h65.024c7.36,0,14.976,4.832,14.976,12.928v36.4 c0,7.68-7.136,14.672-14.976,14.672H432c-8.848,0-16,7.152-16,16c0,8.848,7.152,16,16,16h33.024 C490.48,320,512,298.64,512,273.344v-36.4C512,212.16,490.944,192,465.024,192z"/></g>
      <g><path d="M112,192H46.688C20.496,192,0,211.744,0,236.928v36.4C0,298.64,21.376,320,46.688,320H80c8.848,0,16-7.152,16-16 c0-8.848-7.152-16-16-16H46.688C38.864,288,32,281.152,32,273.344v-36.4C32,228.832,39.472,224,46.688,224H112 c8.848,0,16-7.168,16-16C128,199.168,120.848,192,112,192z"/></g>
      <g><path d="M75.792,244.464c-5.92-5.92-16.816-5.92-22.56,0c-3.04,2.88-4.64,7.04-4.64,11.36c0,4.32,1.6,8.32,4.64,11.2 c2.864,3.04,7.024,4.8,11.2,4.8c4.32,0,8.32-1.76,11.36-4.64c3.024-3.04,4.64-7.2,4.64-11.36 C80.432,251.664,78.816,247.504,75.792,244.464z"/></g>
      <g><path d="M460.272,244.464c-6.08-5.92-16.64-5.92-22.72,0c-2.88,3.04-4.64,7.04-4.64,11.36c0,4.16,1.76,8.32,4.64,11.36 c3.04,2.88,7.2,4.64,11.36,4.64c4.144,0,8.32-1.76,11.36-4.64c2.896-3.04,4.64-7.2,4.64-11.36S463.168,247.504,460.272,244.464z"/></g>
      <g><path d="M465.024,352H46.688C20.496,352,0,371.44,0,396.272v36.4C0,458.32,21.376,480,46.688,480h418.336 C490.48,480,512,458.32,512,432.672v-36.4C512,371.44,491.376,352,465.024,352z M480,432.672c0,7.888-7.28,15.328-14.976,15.328 H46.688C39.008,448,32,440.688,32,432.672v-36.4C32,388.208,39.392,384,46.688,384h418.336c7.264,0,14.976,4.288,14.976,12.272 V432.672z"/></g>
      <g><path d="M352,400H112c-8.848,0-16,7.152-16,16c0,8.848,7.152,16,16,16h240c8.848,0,16-7.152,16-16 C368,407.152,360.848,400,352,400z"/></g>
      <g><path d="M75.792,403.84c-5.92-5.92-16.816-5.92-22.56,0c-3.04,2.88-4.64,7.024-4.64,11.36c0,4.16,1.6,8.304,4.64,11.184 c2.864,3.056,7.024,4.816,11.2,4.816c4.32,0,8.32-1.776,11.36-4.816c3.024-2.864,4.64-7.024,4.64-11.184 C80.432,411.024,78.816,406.864,75.792,403.84z"/></g>
      <g><path d="M460.272,403.84c-5.92-5.92-16.64-5.92-22.72,0c-2.88,2.88-4.64,7.024-4.64,11.36c0,4.16,1.76,8.304,4.64,11.184 c3.04,3.056,7.2,4.816,11.36,4.816c4.144,0,8.32-1.776,11.36-4.816c2.896-2.864,4.64-7.024,4.64-11.184 C464.912,410.864,463.168,406.864,460.272,403.84z"/></g>
      <g><path d="M411.952,403.84c-5.92-5.92-16.64-5.92-22.56,0c-3.056,3.024-4.8,7.024-4.8,11.36c0,4.16,1.76,8.304,4.8,11.184 c2.864,3.056,7.04,4.816,11.2,4.816c4.32,0,8.32-1.776,11.36-4.816c3.024-2.864,4.64-7.024,4.64-11.184 C416.592,410.864,414.976,406.864,411.952,403.84z"/></g>
      <!-- Cloud shape in middle section -->
      <g><path d="M348.624,210.656c-11.28-18.032-31.024-29.2-52.848-29.2c-6.112,0-12.16,0.896-17.936,2.624 c-11.6-15.6-30.208-25.328-50.176-25.328c-31.008,0-56.8,22.72-61.616,52.384c-29.68,4.8-52.416,30.624-52.416,61.648 c0,32.432,25.12,59.632,56.88,62.56c1.44,0.416,2.944,0.656,4.528,0.656h146.624c0.08,0,0.176,0,0.272,0l22.704-0.416 c33.648-0.752,61.024-28.832,61.024-62.592C405.664,240.304,380.544,213.408,348.624,210.656z M344,303.6L200.128,304 l-24.72-0.384c-16.4-0.368-29.76-14.192-29.76-30.816c0-18.048,16.512-32.144,34.144-30.208c4.832,0.544,9.696-1.168,13.136-4.64 s5.104-8.336,4.528-13.184c-0.144-1.184-0.208-2.352-0.208-3.568c0-16.768,13.632-30.432,30.416-30.432 c12.528,0,23.952,7.872,28.4,19.552c1.712,4.48,5.344,7.952,9.888,9.472c4.576,1.504,9.536,0.928,13.6-1.648 c4.848-3.056,10.464-4.672,16.224-4.672c12.496,0,23.568,7.504,28.24,19.12c2.672,6.624,9.152,10.672,16.576,9.936 c0.64-0.08,1.296-0.08,1.952-0.08c16.672,0.048,31.12,13.472,31.12,30.56C373.664,289.504,360.336,303.248,344,303.6z"/></g>

  </g>
  <text x="350" y="274" text-anchor="middle" font-family="system-ui, -apple-system, sans-serif" font-size="10" class="label-text" font-weight="600">Master Gateway</text>
  <text x="350" y="287" text-anchor="middle" font-family="system-ui, sans-serif" font-size="9" class="subtitle-text" font-weight="400">VPS :9000</text>
  <g>
    <rect x="306" y="293" width="88" height="18" rx="3" class="ip-bg-proxy" opacity="0.92"/>
    <text x="350" y="306" text-anchor="middle" font-family="ui-monospace, monospace" font-size="9" class="ip-text" font-weight="600">198.51.100.10</text>
  </g>

  <!-- IP change badge at gateway -->
  <g transform="translate(350,202)">
    <rect x="-30" y="-9" width="60" height="18" rx="9" fill="#fef3c7" stroke="#d97706" stroke-width="1"/>
    <text x="0" y="3" text-anchor="middle" font-family="system-ui" font-size="7.5" class="badge-text" font-weight="700">IP changes</text>
  </g>

  <!-- Home PC US - IPs moved lower to avoid overlapping US/CN/RU badge -->
  <g transform="translate(600,85) scale(0.09) translate(-256,-256)" class="icon-fill">
    
      <g><path d="M304.688,128H31.312C14.048,128,0,142.016,0,159.248v177.52C0,354,14.048,368,31.312,368h273.376 C321.952,368,336,354,336,336.768v-177.52C336,142.016,321.952,128,304.688,128z M304,336l-272,0.768L31.312,160L304,159.248V336z"/></g>
      <g><path d="M208,352c-8.832,0-16,7.168-16,16v16h-48v-16c0-8.832-7.168-16-16-16c-8.832,0-16,7.168-16,16v32c0,8.832,7.168,16,16,16 h80c8.832,0,16-7.168,16-16v-32C224,359.168,216.832,352,208,352z"/></g>
      <g><path d="M477.296,96h-90.592C367.568,96,352,112.224,352,132.176V379.84c0,19.936,15.568,36.16,34.704,36.16h90.592 C496.432,416,512,399.776,512,379.84V132.176C512,112.224,496.432,96,477.296,96z M480,379.84c0,2.352-1.456,4.16-2.704,4.16 h-90.592c-1.248,0-2.704-1.824-2.704-4.16V132.176c0-2.352,1.456-4.176,2.704-4.176h90.592c1.248,0,2.704,1.824,2.704,4.176 V379.84z"/></g>
      <g><path d="M448,240h-32c-8.832,0-16,7.168-16,16c0,8.832,7.168,16,16,16h32c8.832,0,16-7.168,16-16C464,247.168,456.832,240,448,240z"/></g>
      <g><path d="M448,288h-32c-8.832,0-16,7.168-16,16c0,8.832,7.168,16,16,16h32c8.832,0,16-7.168,16-16C464,295.168,456.832,288,448,288z"/></g>
      <g><path d="M448,336h-32c-8.832,0-16,7.168-16,16c0,8.832,7.168,16,16,16h32c8.832,0,16-7.168,16-16C464,343.168,456.832,336,448,336z"/></g>
      <g><path d="M240,384H96c-8.832,0-16,7.168-16,16c0,8.832,7.168,16,16,16h144c8.832,0,16-7.168,16-16C256,391.168,248.832,384,240,384z"/></g>

  </g>
  <text x="600" y="117" text-anchor="middle" font-family="system-ui, -apple-system, sans-serif" font-size="10" class="label-text" font-weight="600">Home PC</text>
  <g transform="translate(600,129)">
    <rect x="-22" y="-8" width="44" height="16" rx="8" fill="#dbeafe" stroke="#3b82f6" stroke-width="0.8"/>
    <text x="0" y="3" text-anchor="middle" font-family="system-ui" font-size="8" fill="#1e40af" font-weight="700">US</text>
  </g>
  <g>
    <rect x="562" y="144" width="76" height="18" rx="3" class="ip-bg-res" opacity="0.92"/>
    <text x="600" y="157" text-anchor="middle" font-family="ui-monospace, monospace" font-size="9" class="ip-text" font-weight="600">72.93.12.4</text>
  </g>

  <!-- Home PC CN -->
  <g transform="translate(600,240) scale(0.09) translate(-256,-256)" class="icon-fill">
    
      <g><path d="M304.688,128H31.312C14.048,128,0,142.016,0,159.248v177.52C0,354,14.048,368,31.312,368h273.376 C321.952,368,336,354,336,336.768v-177.52C336,142.016,321.952,128,304.688,128z M304,336l-272,0.768L31.312,160L304,159.248V336z"/></g>
      <g><path d="M208,352c-8.832,0-16,7.168-16,16v16h-48v-16c0-8.832-7.168-16-16-16c-8.832,0-16,7.168-16,16v32c0,8.832,7.168,16,16,16 h80c8.832,0,16-7.168,16-16v-32C224,359.168,216.832,352,208,352z"/></g>
      <g><path d="M477.296,96h-90.592C367.568,96,352,112.224,352,132.176V379.84c0,19.936,15.568,36.16,34.704,36.16h90.592 C496.432,416,512,399.776,512,379.84V132.176C512,112.224,496.432,96,477.296,96z M480,379.84c0,2.352-1.456,4.16-2.704,4.16 h-90.592c-1.248,0-2.704-1.824-2.704-4.16V132.176c0-2.352,1.456-4.176,2.704-4.176h90.592c1.248,0,2.704,1.824,2.704,4.176 V379.84z"/></g>
      <g><path d="M448,240h-32c-8.832,0-16,7.168-16,16c0,8.832,7.168,16,16,16h32c8.832,0,16-7.168,16-16C464,247.168,456.832,240,448,240z"/></g>
      <g><path d="M448,288h-32c-8.832,0-16,7.168-16,16c0,8.832,7.168,16,16,16h32c8.832,0,16-7.168,16-16C464,295.168,456.832,288,448,288z"/></g>
      <g><path d="M448,336h-32c-8.832,0-16,7.168-16,16c0,8.832,7.168,16,16,16h32c8.832,0,16-7.168,16-16C464,343.168,456.832,336,448,336z"/></g>
      <g><path d="M240,384H96c-8.832,0-16,7.168-16,16c0,8.832,7.168,16,16,16h144c8.832,0,16-7.168,16-16C256,391.168,248.832,384,240,384z"/></g>

  </g>
  <text x="600" y="272" text-anchor="middle" font-family="system-ui, -apple-system, sans-serif" font-size="10" class="label-text" font-weight="600">Home PC</text>
  <g transform="translate(600,284)">
    <rect x="-22" y="-8" width="44" height="16" rx="8" fill="#fee2e2" stroke="#ef4444" stroke-width="0.8"/>
    <text x="0" y="3" text-anchor="middle" font-family="system-ui" font-size="8" fill="#991b1b" font-weight="700">CN</text>
  </g>
  <g>
    <rect x="562" y="299" width="76" height="18" rx="3" class="ip-bg-res" opacity="0.92"/>
    <text x="600" y="312" text-anchor="middle" font-family="ui-monospace, monospace" font-size="9" class="ip-text" font-weight="600">114.88.5.22</text>
  </g>

  <!-- Home PC RU -->
  <g transform="translate(600,395) scale(0.09) translate(-256,-256)" class="icon-fill">
    
      <g><path d="M304.688,128H31.312C14.048,128,0,142.016,0,159.248v177.52C0,354,14.048,368,31.312,368h273.376 C321.952,368,336,354,336,336.768v-177.52C336,142.016,321.952,128,304.688,128z M304,336l-272,0.768L31.312,160L304,159.248V336z"/></g>
      <g><path d="M208,352c-8.832,0-16,7.168-16,16v16h-48v-16c0-8.832-7.168-16-16-16c-8.832,0-16,7.168-16,16v32c0,8.832,7.168,16,16,16 h80c8.832,0,16-7.168,16-16v-32C224,359.168,216.832,352,208,352z"/></g>
      <g><path d="M477.296,96h-90.592C367.568,96,352,112.224,352,132.176V379.84c0,19.936,15.568,36.16,34.704,36.16h90.592 C496.432,416,512,399.776,512,379.84V132.176C512,112.224,496.432,96,477.296,96z M480,379.84c0,2.352-1.456,4.16-2.704,4.16 h-90.592c-1.248,0-2.704-1.824-2.704-4.16V132.176c0-2.352,1.456-4.176,2.704-4.176h90.592c1.248,0,2.704,1.824,2.704,4.176 V379.84z"/></g>
      <g><path d="M448,240h-32c-8.832,0-16,7.168-16,16c0,8.832,7.168,16,16,16h32c8.832,0,16-7.168,16-16C464,247.168,456.832,240,448,240z"/></g>
      <g><path d="M448,288h-32c-8.832,0-16,7.168-16,16c0,8.832,7.168,16,16,16h32c8.832,0,16-7.168,16-16C464,295.168,456.832,288,448,288z"/></g>
      <g><path d="M448,336h-32c-8.832,0-16,7.168-16,16c0,8.832,7.168,16,16,16h32c8.832,0,16-7.168,16-16C464,343.168,456.832,336,448,336z"/></g>
      <g><path d="M240,384H96c-8.832,0-16,7.168-16,16c0,8.832,7.168,16,16,16h144c8.832,0,16-7.168,16-16C256,391.168,248.832,384,240,384z"/></g>

  </g>
  <text x="600" y="427" text-anchor="middle" font-family="system-ui, -apple-system, sans-serif" font-size="10" class="label-text" font-weight="600">Home PC</text>
  <g transform="translate(600,439)">
    <rect x="-22" y="-8" width="44" height="16" rx="8" fill="#fef3c7" stroke="#f59e0b" stroke-width="0.8"/>
    <text x="0" y="3" text-anchor="middle" font-family="system-ui" font-size="8" fill="#92400e" font-weight="700">RU</text>
  </g>
  <g>
    <rect x="562" y="454" width="76" height="18" rx="3" class="ip-bg-res" opacity="0.92"/>
    <text x="600" y="467" text-anchor="middle" font-family="ui-monospace, monospace" font-size="9" class="ip-text" font-weight="600">95.163.8.17</text>
  </g>

  <!-- Residential IP badge -->
  <g transform="translate(600,56)">
    <rect x="-48" y="-10" width="96" height="20" rx="10" fill="#dcfce7" stroke="#16a34a" stroke-width="1.2"/>
    <text x="0" y="4" text-anchor="middle" font-family="system-ui" font-size="8.5" class="residential-label" font-weight="700">Residential IP!</text>
  </g>

  <!-- Target Website (Checkmark) -->
  <g transform="translate(870,155) scale(0.09) translate(-256,-256)" class="icon-fill">
    
      <g><path d="M465.505,31.999H46.479C20.863,31.999,0,52.686,0,78.142v35.711c0,25.439,20.863,46.143,46.479,46.143h419.043 c25.615,0,46.463-20.703,46.463-46.143V78.142C511.984,52.686,491.137,31.999,465.505,31.999z M479.985,113.852 c0,7.792-6.48,14.144-14.479,14.144H46.479c-7.984,0-14.48-6.352-14.48-14.144V78.142c0-7.808,6.496-14.144,14.48-14.144h419.043 c7.984,0,14.464,6.336,14.464,14.144V113.852z"/></g>
      <g><path d="M351.989,79.998H111.997c-8.848,0-16,7.168-16,16s7.152,16,16,16h239.992c8.848,0,16-7.168,16-16 S360.837,79.998,351.989,79.998z"/></g>
      <g><path d="M75.854,84.781c-6.08-5.92-16.799-5.92-22.719,0c-2.896,3.04-4.64,7.2-4.64,11.36c0,4.32,1.744,8.48,4.64,11.36 c3.024,2.88,7.2,4.64,11.36,4.64c4.16,0,8.32-1.76,11.36-4.64c3.024-3.04,4.64-7.2,4.64-11.36S78.878,87.821,75.854,84.781z"/></g>
      <g><path d="M460.162,84.941c-5.92-6.08-16.799-5.92-22.559-0.16c-3.024,3.04-4.64,7.2-4.64,11.36c0,4.32,1.616,8.32,4.64,11.36 c2.896,2.88,7.04,4.64,11.36,4.64c4.16,0,8.32-1.76,11.2-4.64c3.056-3.04,4.8-7.04,4.8-11.36 C464.961,91.981,463.202,87.821,460.162,84.941z"/></g>
      <g><path d="M412.003,84.781c-6.08-5.92-16.799-5.92-22.559,0c-3.04,3.04-4.8,7.2-4.8,11.36c0,4.32,1.76,8.32,4.64,11.36 c3.04,2.88,7.2,4.64,11.36,4.64s8.32-1.6,11.36-4.64c3.04-3.04,4.64-7.2,4.64-11.36S415.043,87.821,412.003,84.781z"/></g>
      <g><path d="M465.009,191.994h-113.02c-8.848,0-16,7.168-16,16s7.152,15.999,16,15.999h113.02c7.36,0,14.976,4.848,14.976,12.976 v36.399c0,7.792-7.008,14.624-14.976,14.624h-113.02c-8.848,0-16,7.168-16,15.999s7.152,16,16,16h113.02 c25.455,0,46.975-21.359,46.975-46.622v-36.399C511.984,212.169,490.929,191.994,465.009,191.994z"/></g>
      <g><path d="M159.995,287.991H46.703c-7.824,0-14.703-6.832-14.703-14.624v-36.399c0-8.128,7.472-12.976,14.703-12.976h113.292 c8.848,0,16-7.168,16-15.999s-7.152-16-16-16H46.703C20.511,191.994,0,211.737,0,236.969v36.399 c0,25.263,21.391,46.622,46.703,46.622h113.292c8.848,0,16-7.168,16-16S168.843,287.991,159.995,287.991z"/></g>
      <g><path d="M159.995,239.993h-47.998c-8.848,0-16,7.168-16,16s7.152,16,16,16h47.998c8.848,0,16-7.168,16-16 S168.843,239.993,159.995,239.993z"/></g>
      <g><path d="M75.854,244.456c-6.08-5.92-16.799-5.92-22.719,0c-2.896,3.04-4.64,7.2-4.64,11.36c0,4.32,1.744,8.32,4.64,11.36 c3.024,3.04,7.2,4.64,11.36,4.64c4.16,0,8.32-1.6,11.36-4.64c3.024-3.04,4.64-7.2,4.64-11.36S78.878,247.496,75.854,244.456z"/></g>
      <g><path d="M460.162,244.456c-5.92-5.92-16.639-5.92-22.559,0c-3.024,3.04-4.64,7.2-4.64,11.36c0,4.32,1.616,8.32,4.64,11.36 c2.896,2.88,7.04,4.64,11.36,4.64c4.16,0,8.32-1.76,11.2-4.64c3.056-2.88,4.8-7.04,4.8-11.36 C464.961,251.656,463.202,247.496,460.162,244.456z"/></g>
      <g><path d="M412.003,244.456c-5.92-5.92-16.799-5.76-22.559,0c-3.04,3.04-4.8,7.04-4.8,11.36c0,4.16,1.776,8.32,4.8,11.36 c2.88,2.88,7.04,4.64,11.2,4.64s8.32-1.76,11.36-4.64c3.04-3.04,4.64-7.2,4.64-11.36S415.043,247.496,412.003,244.456z"/></g>
      <g><path d="M465.505,351.989H46.479C20.863,351.989,0,372.676,0,398.132v35.711c0,25.439,20.863,46.143,46.479,46.143h419.043 c25.615,0,46.463-20.703,46.463-46.143v-35.711C511.984,372.676,491.137,351.989,465.505,351.989z M479.985,433.842 c0,7.792-6.48,14.144-14.479,14.144H46.479c-7.984,0-14.48-6.352-14.48-14.144v-35.711c0-7.808,6.496-14.144,14.48-14.144h419.043 c7.984,0,14.464,6.336,14.464,14.144V433.842z"/></g>
      <g><path d="M351.989,399.988H111.997c-8.848,0-16,7.168-16,16s7.152,16,16,16h239.992c8.848,0,16-7.168,16-16 S360.837,399.988,351.989,399.988z"/></g>
      <g><path d="M75.854,403.811c-6.08-5.92-16.799-5.92-22.719,0c-2.896,3.04-4.64,7.2-4.64,11.36c0,4.32,1.744,8.32,4.64,11.36 c3.024,2.88,7.2,4.64,11.36,4.64c4.16,0,8.32-1.76,11.36-4.64c3.024-3.04,4.64-7.2,4.64-11.36S78.878,406.851,75.854,403.811z"/></g>
      <g><path d="M460.162,403.811c-5.92-5.92-16.639-5.92-22.559,0c-3.024,3.04-4.64,7.2-4.64,11.36c0,4.32,1.616,8.32,4.64,11.2 c2.896,3.04,7.04,4.8,11.36,4.8c4.16,0,8.32-1.76,11.2-4.64c3.056-3.04,4.8-7.04,4.8-11.36 C464.961,411.011,463.202,406.851,460.162,403.811z"/></g>
      <g><path d="M412.003,403.811c-6.08-5.92-16.799-5.92-22.559,0c-3.04,3.04-4.8,7.2-4.8,11.36c0,4.32,1.76,8.32,4.64,11.2 c3.04,3.04,7.04,4.8,11.36,4.8c4.16,0,8.32-1.76,11.36-4.64c3.04-3.04,4.64-7.2,4.64-11.36S415.043,406.851,412.003,403.811z"/></g>
      <!-- Circle with checkmark in middle section -->
      <g><path d="M256.984,143.5c-61.486,0-111.5,50.014-111.5,111.485c0,61.502,50.014,111.532,111.5,111.532 c61.47,0,111.501-50.03,111.517-111.532C368.5,193.514,318.47,143.5,256.984,143.5z M256.984,334.518 c-43.839,0-79.501-35.679-79.501-79.534c0-43.823,35.663-79.486,79.501-79.486c43.839,0,79.502,35.647,79.518,79.486 C336.501,298.839,300.823,334.518,256.984,334.518z"/></g>
      <g><path d="M316.614,211.881c-6.256-6.256-16.367-6.256-22.623,0l-53.982,53.982L221.177,247c-6.256-6.272-16.384-6.256-22.639-0.016 s-6.256,16.367-0.016,22.623l30.159,30.191c2.992,3.008,7.072,4.688,11.328,4.688c4.256,0,8.32-1.696,11.312-4.688l65.294-65.294 C322.87,228.249,322.87,218.137,316.614,211.881z"/></g>

  </g>
  <text x="870" y="189" text-anchor="middle" font-family="system-ui, -apple-system, sans-serif" font-size="10" class="label-text" font-weight="600">Target Website</text>
  <text x="870" y="202" text-anchor="middle" font-family="system-ui, sans-serif" font-size="9" class="target-sub" font-weight="400">Sees residential IP</text>
  <g>
    <rect x="832" y="208" width="76" height="18" rx="3" class="ip-bg-target" opacity="0.92"/>
    <text x="870" y="221" text-anchor="middle" font-family="ui-monospace, monospace" font-size="9" class="ip-text" font-weight="600">72.93.12.4</text>
  </g>

  <!-- Target Mobile (Smartphone) -->
  <g transform="translate(870,325) scale(0.085) translate(-256,-256)" class="icon-fill">
    
      <g><path d="M353.728,0h-195.44C123.936,0,96,27.92,96,62.256v387.488C96,484.08,123.936,512,158.288,512h195.424 C388.064,512,416,484.08,416,449.76V62.256C416,27.92,388.064,0,353.728,0z M384,449.744C384,466.432,370.416,480,353.728,480 h-195.44C141.584,480,128,466.432,128,449.76V62.256C128,45.568,141.584,32,158.288,32h195.424C370.416,32,384,45.568,384,62.256 V449.744z"/></g>
      <g><circle cx="256.32" cy="450.24" r="16"/></g>
      <g><path d="M272,48h-32c-8.832,0-16,7.152-16,16s7.168,16,16,16h32c8.832,0,16-7.152,16-16S280.832,48,272,48z"/></g>
      <g><path d="M352,96H160c-8.832,0-16,7.152-16,16v288c0,8.848,7.168,16,16,16h192c8.832,0,16-7.152,16-16V112 C368,103.152,360.832,96,352,96z M336,384H176V128h160V384z"/></g>

  </g>
  <text x="870" y="357" text-anchor="middle" font-family="system-ui, -apple-system, sans-serif" font-size="10" class="label-text" font-weight="600">Target App</text>
  <text x="870" y="370" text-anchor="middle" font-family="system-ui, sans-serif" font-size="9" class="target-sub" font-weight="400">Sees residential IP</text>
  <g>
    <rect x="832" y="376" width="76" height="18" rx="3" class="ip-bg-target" opacity="0.92"/>
    <text x="870" y="389" text-anchor="middle" font-family="ui-monospace, monospace" font-size="9" class="ip-text" font-weight="600">95.163.8.17</text>
  </g>
</svg>