<svg viewBox="0 0 960 280" xmlns="http://www.w3.org/2000/svg">
  <defs>
    <marker id="ar1" viewBox="0 0 10 10" refX="9" refY="5" markerWidth="7" markerHeight="7" orient="auto-start-reverse"><path d="M 0 1 L 10 5 L 0 9 z" fill="#7c3aed"/></marker>
    <marker id="ar2" viewBox="0 0 10 10" refX="9" refY="5" markerWidth="7" markerHeight="7" orient="auto-start-reverse"><path d="M 0 1 L 10 5 L 0 9 z" fill="#0891b2"/></marker>
  </defs>
  <style>
  /* Light theme (default) */
  .title-text { fill: #1e293b; }
  .subtitle-text { fill: #475569; }
  .label-text { fill: #334155; }
  .icon-fill { fill: #334155; }
  .flow-label { fill: #64748b; }
  .ip-bg-client { fill: #475569; }
  .ip-bg-proxy { fill: #2563eb; }
  .ip-bg-res { fill: #15803d; }
  .ip-bg-target { fill: #059669; }
  .ip-text { fill: #ffffff; }
  .badge-text { fill: #92400e; }
  .badge-text-purple { fill: #5b21b6; }
  .badge-text-blue { fill: #0c4a6e; }
  .target-sub { fill: #64748b; }
  .conn-line { stroke: #94a3b8; }
  .conn-line-orange { stroke: #fdba74; }
  .conn-line-purple { stroke: #c4b5fd; }
  .conn-line-cyan { stroke: #67e8f9; }
  .conn-line-green { stroke: #86efac; }
  .conn-line-amber { stroke: #fde68a; }
  .residential-label { fill: #15803d; }

  /* Dark theme */
  @media (prefers-color-scheme: dark) {
    .title-text { fill: #e2e8f0; }
    .subtitle-text { fill: #94a3b8; }
    .label-text { fill: #cbd5e1; }
    .icon-fill { fill: #e2e8f0; }
    .flow-label { fill: #94a3b8; }
    .ip-bg-client { fill: #475569; }
    .ip-bg-proxy { fill: #3b82f6; }
    .ip-bg-res { fill: #16a34a; }
    .ip-bg-target { fill: #059669; }
    .ip-text { fill: #ffffff; }
    .badge-text { fill: #92400e; }
    .badge-text-purple { fill: #5b21b6; }
    .badge-text-blue { fill: #0c4a6e; }
    .target-sub { fill: #94a3b8; }
    .conn-line { stroke: #475569; }
    .conn-line-orange { stroke: #c2410c; }
    .conn-line-purple { stroke: #7c3aed; }
    .conn-line-cyan { stroke: #0891b2; }
    .conn-line-green { stroke: #059669; }
    .conn-line-amber { stroke: #b45309; }
    .residential-label { fill: #4ade80; }
  }
</style>

  <text x="480" y="24" text-anchor="middle" font-family="system-ui, -apple-system, sans-serif" font-size="16" class="title-text" font-weight="700">SOCKS5 Proxy</text>
  <text x="480" y="40" text-anchor="middle" font-family="system-ui, sans-serif" font-size="9" class="subtitle-text" font-weight="400">Dante-based TCP proxy — low-level, supports any traffic type</text>

  <line x1="163" y1="134" x2="440" y2="134" class="conn-line-purple" stroke-width="1.5" stroke-dasharray="6,3" marker-end="url(#ar1)"/>
  <line x1="513" y1="134" x2="790" y2="134" class="conn-line-purple" stroke-width="1.5" stroke-dasharray="6,3" marker-end="url(#ar1)"/>
  <line x1="790" y1="146" x2="513" y2="146" class="conn-line-cyan" stroke-width="1.5" stroke-dasharray="6,3" marker-end="url(#ar2)"/>
  <line x1="440" y1="146" x2="163" y2="146" class="conn-line-cyan" stroke-width="1.5" stroke-dasharray="6,3" marker-end="url(#ar2)"/>

  <text x="301" y="120" text-anchor="middle" font-family="system-ui, sans-serif" font-size="8" fill="#7c3aed" font-style="italic">TCP CONNECT (your IP)</text>
  <text x="651" y="120" text-anchor="middle" font-family="system-ui, sans-serif" font-size="8" fill="#7c3aed" font-style="italic">RELAYED (proxy IP)</text>
  <text x="651" y="164" text-anchor="middle" font-family="system-ui, sans-serif" font-size="8" fill="#0891b2" font-style="italic">RESPONSE</text>
  <text x="301" y="164" text-anchor="middle" font-family="system-ui, sans-serif" font-size="8" fill="#0891b2" font-style="italic">RESPONSE</text>

  <circle r="4" fill="#7c3aed" opacity="0.85"><animateMotion dur="2s" begin="0s" repeatCount="indefinite" path="M163,134 L440,134"/></circle>
  <circle r="2.5" fill="#a78bfa" opacity="0.85"><animateMotion dur="2s" begin="0.3s" repeatCount="indefinite" path="M163,134 L440,134"/></circle>
  <circle r="4" fill="#7c3aed" opacity="0.85"><animateMotion dur="2s" begin="2.2s" repeatCount="indefinite" path="M513,134 L790,134"/></circle>
  <circle r="2.5" fill="#a78bfa" opacity="0.85"><animateMotion dur="2s" begin="2.5s" repeatCount="indefinite" path="M513,134 L790,134"/></circle>
  <circle r="4" fill="#0891b2" opacity="0.85"><animateMotion dur="2s" begin="4.4s" repeatCount="indefinite" path="M790,146 L513,146"/></circle>
  <circle r="2.5" fill="#22d3ee" opacity="0.85"><animateMotion dur="2s" begin="4.7s" repeatCount="indefinite" path="M790,146 L513,146"/></circle>
  <circle r="4" fill="#0891b2" opacity="0.85"><animateMotion dur="2s" begin="6.6s" repeatCount="indefinite" path="M440,146 L163,146"/></circle>
  <circle r="2.5" fill="#22d3ee" opacity="0.85"><animateMotion dur="2s" begin="6.9s" repeatCount="indefinite" path="M440,146 L163,146"/></circle>

  <circle cx="480" cy="140" r="30" fill="#7c3aed" opacity="0"><animate attributeName="r" values="30;66;30" dur="3s" repeatCount="indefinite"/><animate attributeName="opacity" values="0.35;0;0.35" dur="3s" repeatCount="indefinite"/></circle>

  <g transform="translate(480,98)">
    <rect x="-32" y="-10" width="64" height="20" rx="10" fill="#ede9fe" stroke="#8b5cf6" stroke-width="1"/>
    <text x="0" y="4" text-anchor="middle" font-family="system-ui" font-size="8" class="badge-text-purple" font-weight="700">IP changes</text>
  </g>

  <!-- Client (Laptop) -->
  <g transform="translate(130,140) scale(0.11) translate(-256,-256)" class="icon-fill">
    
      <g><path d="M424.784,0H87.552C65.744,0,48,17.472,48,38.96V256c0,8.832,7.168,16,16,16h384c8.832,0,16-7.168,16-16V38.96 C464,17.472,446.4,0,424.784,0z M432,240H80V38.96c0-3.776,3.456-6.96,7.552-6.96h337.232c3.984,0,7.216,3.12,7.216,6.96V240z"/></g>
      <g><path d="M448,240c-8.832,0-16,7.168-16,16v217.584c0,3.712-3.04,6.416-7.216,6.416H87.552c-4.224,0-7.552-2.816-7.552-6.416V256 c0-8.832-7.168-16-16-16c-8.832,0-16,7.168-16,16v217.584C48,494.768,65.744,512,87.552,512h337.232 C446.768,512,464,495.12,464,473.584V256C464,247.168,456.832,240,448,240z"/></g>
      <g><path d="M289.456,432h-67.12C205.616,432,192,445.808,192,462.8V496c0,8.832,7.168,16,16,16c8.832,0,16-7.168,16-16v-32h64v32 c0,8.832,7.168,16,16,16c8.832,0,16-7.168,16-16v-33.2C320,445.808,306.304,432,289.456,432z"/></g>
      <g><path d="M187.36,292.64c-5.92-5.92-16.8-5.92-22.72,0c-2.88,3.04-4.64,7.04-4.64,11.36c0,4.16,1.76,8.32,4.64,11.36 c3.04,2.88,7.2,4.64,11.36,4.64c4.16,0,8.32-1.76,11.36-4.64c2.88-3.04,4.64-7.2,4.64-11.36 C192,299.84,190.24,295.68,187.36,292.64z"/></g>
      <g><path d="M235.36,292.64c-6.08-5.92-16.8-5.92-22.72,0c-2.88,3.04-4.64,7.04-4.64,11.36c0,4.16,1.76,8.32,4.64,11.36 c3.04,2.88,7.2,4.64,11.36,4.64c4.16,0,8.32-1.76,11.36-4.64c2.88-3.04,4.64-7.2,4.64-11.36 C240,299.68,238.24,295.68,235.36,292.64z"/></g>
      <g><path d="M139.36,292.64c-5.92-5.92-16.64-5.92-22.72,0c-2.88,3.04-4.64,7.2-4.64,11.36c0,4.16,1.76,8.32,4.64,11.36 c3.04,2.88,7.2,4.64,11.36,4.64c4.32,0,8.32-1.76,11.36-4.64c2.88-3.04,4.64-7.04,4.64-11.36 C144,299.84,142.24,295.68,139.36,292.64z"/></g>
      <g><path d="M283.36,292.64c-6.08-5.92-16.8-5.92-22.72,0c-2.88,3.04-4.64,7.2-4.64,11.36c0,4.16,1.76,8.32,4.64,11.36 c3.04,2.88,7.2,4.64,11.36,4.64c4.16,0,8.32-1.76,11.36-4.64c2.88-3.04,4.64-7.2,4.64-11.36 C288,299.84,286.24,295.68,283.36,292.64z"/></g>
      <g><path d="M331.36,292.64c-6.08-5.92-16.8-5.92-22.72,0c-2.88,3.04-4.64,7.2-4.64,11.36c0,4.16,1.76,8.32,4.64,11.36 c3.04,2.88,7.2,4.64,11.36,4.64c4.16,0,8.32-1.76,11.36-4.64c2.88-3.04,4.64-7.2,4.64-11.36 C336,299.84,334.24,295.68,331.36,292.64z"/></g>
      <g><path d="M379.36,292.64c-6.08-5.92-16.8-5.92-22.72,0c-2.88,3.04-4.64,7.2-4.64,11.36c0,4.16,1.76,8.32,4.64,11.36 c3.04,2.88,7.2,4.64,11.36,4.64c4.16,0,8.32-1.76,11.36-4.64c2.88-3.04,4.64-7.2,4.64-11.36 C384,299.84,382.24,295.68,379.36,292.64z"/></g>
      <g><path d="M187.36,340.64c-5.92-5.92-16.8-5.92-22.72,0c-2.88,3.04-4.64,7.04-4.64,11.36c0,4.16,1.76,8.32,4.64,11.36 c3.04,2.88,7.2,4.64,11.36,4.64c4.16,0,8.32-1.76,11.36-4.64c2.88-3.04,4.64-7.2,4.64-11.36 C192,347.84,190.24,343.68,187.36,340.64z"/></g>
      <g><path d="M235.36,340.64c-6.08-5.92-16.8-5.92-22.72,0c-2.88,3.04-4.64,7.2-4.64,11.36c0,4.32,1.76,8.32,4.64,11.36 c3.04,2.88,7.04,4.64,11.36,4.64c4.16,0,8.32-1.76,11.36-4.64c2.88-3.04,4.64-7.2,4.64-11.36 C240,347.84,238.24,343.68,235.36,340.64z"/></g>
      <g><path d="M139.36,340.64c-5.92-5.92-16.64-5.92-22.72,0c-2.88,3.04-4.64,7.2-4.64,11.36c0,4.16,1.76,8.32,4.64,11.36 c3.04,2.88,7.2,4.64,11.36,4.64c4.32,0,8.32-1.76,11.36-4.64c2.88-3.04,4.64-7.2,4.64-11.36 C144,347.68,142.24,343.68,139.36,340.64z"/></g>
      <g><path d="M283.36,340.64c-6.08-5.92-16.8-5.92-22.72,0c-2.88,3.04-4.64,7.2-4.64,11.36c0,4.16,1.76,8.32,4.64,11.36 c3.04,2.88,7.2,4.64,11.36,4.64c4.16,0,8.32-1.76,11.36-4.64c2.88-3.04,4.64-7.2,4.64-11.36 C288,347.84,286.24,343.68,283.36,340.64z"/></g>
      <g><path d="M331.36,340.64c-6.08-5.92-16.64-5.92-22.72,0c-2.88,3.04-4.64,7.2-4.64,11.36c0,4.16,1.76,8.32,4.64,11.36 c3.04,2.88,7.2,4.64,11.36,4.64c4.16,0,8.32-1.76,11.36-4.64c2.88-3.04,4.64-7.2,4.64-11.36 C336,347.84,334.24,343.68,331.36,340.64z"/></g>
      <g><path d="M379.36,340.64c-6.08-5.92-16.8-5.92-22.72,0c-2.88,3.04-4.64,7.2-4.64,11.36c0,4.16,1.76,8.32,4.64,11.36 c3.04,2.88,7.2,4.64,11.36,4.64c4.16,0,8.32-1.76,11.36-4.64c2.88-3.04,4.64-7.2,4.64-11.36 C384,347.84,382.24,343.68,379.36,340.64z"/></g>

  </g>
  <text x="130" y="178" text-anchor="middle" font-family="system-ui, -apple-system, sans-serif" font-size="12" class="label-text" font-weight="600">Client</text>
  <g>
    <rect x="86" y="186" width="88" height="18" rx="3" class="ip-bg-client" opacity="0.92"/>
    <text x="130" y="199" text-anchor="middle" font-family="ui-monospace, monospace" font-size="9" class="ip-text" font-weight="600">203.0.113.5</text>
  </g>

  <!-- SOCKS5 Server (Cloud) -->
  <g transform="translate(480,140) scale(0.11) translate(-256,-256)" class="icon-fill">
    
      <g><path d="M465.024,32H46.688C20.944,32,0,52.32,0,77.28v36.4C0,139.232,20.944,160,46.688,160H160c8.848,0,16-7.168,16-16 c0-8.832-7.152-16-16-16H46.688C38.72,128,32,121.44,32,113.68v-36.4C32,69.84,38.448,64,46.688,64h418.336 C473.28,64,480,69.968,480,77.28v36.4c0,7.632-7.008,14.32-14.976,14.32H288c-8.848,0-16,7.168-16,16c0,8.832,7.152,16,16,16 h177.024C490.48,160,512,138.784,512,113.68v-36.4C512,52.32,490.944,32,465.024,32z"/></g>
      <g><path d="M352,80H112c-8.848,0-16,7.168-16,16c0,8.832,7.152,16,16,16h240c8.848,0,16-7.168,16-16C368,87.168,360.848,80,352,80z"/></g>
      <g><path d="M75.792,84.784c-5.92-5.92-16.816-5.76-22.56,0c-3.04,2.88-4.64,7.04-4.64,11.36s1.6,8.48,4.64,11.36 c2.864,2.88,7.024,4.64,11.2,4.64c4.32,0,8.48-1.76,11.36-4.64c3.024-3.04,4.64-7.2,4.64-11.36 C80.432,91.984,78.816,87.824,75.792,84.784z"/></g>
      <g><path d="M460.272,84.784c-5.92-5.92-16.8-5.92-22.72,0c-2.88,3.04-4.64,7.2-4.64,11.36c0,4.16,1.76,8.32,4.64,11.36 c3.04,2.88,7.2,4.64,11.36,4.64c4.144,0,8.32-1.76,11.36-4.64c2.896-3.04,4.64-7.2,4.64-11.36 C464.912,91.984,463.168,87.824,460.272,84.784z"/></g>
      <g><path d="M411.952,84.784c-5.92-5.92-16.64-5.92-22.56,0c-3.056,3.04-4.8,7.2-4.8,11.36c0,4.16,1.76,8.32,4.8,11.36 c3.04,3.04,7.04,4.64,11.2,4.64c4.32,0,8.32-1.6,11.36-4.64c3.024-3.04,4.64-7.2,4.64-11.36 C416.592,91.984,414.976,87.824,411.952,84.784z"/></g>
      <g><path d="M465.024,192H400c-8.848,0-16,7.168-16,16c0,8.832,7.152,16,16,16h65.024c7.36,0,14.976,4.832,14.976,12.928v36.4 c0,7.68-7.136,14.672-14.976,14.672H432c-8.848,0-16,7.152-16,16c0,8.848,7.152,16,16,16h33.024 C490.48,320,512,298.64,512,273.344v-36.4C512,212.16,490.944,192,465.024,192z"/></g>
      <g><path d="M112,192H46.688C20.496,192,0,211.744,0,236.928v36.4C0,298.64,21.376,320,46.688,320H80c8.848,0,16-7.152,16-16 c0-8.848-7.152-16-16-16H46.688C38.864,288,32,281.152,32,273.344v-36.4C32,228.832,39.472,224,46.688,224H112 c8.848,0,16-7.168,16-16C128,199.168,120.848,192,112,192z"/></g>
      <g><path d="M75.792,244.464c-5.92-5.92-16.816-5.92-22.56,0c-3.04,2.88-4.64,7.04-4.64,11.36c0,4.32,1.6,8.32,4.64,11.2 c2.864,3.04,7.024,4.8,11.2,4.8c4.32,0,8.32-1.76,11.36-4.64c3.024-3.04,4.64-7.2,4.64-11.36 C80.432,251.664,78.816,247.504,75.792,244.464z"/></g>
      <g><path d="M460.272,244.464c-6.08-5.92-16.64-5.92-22.72,0c-2.88,3.04-4.64,7.04-4.64,11.36c0,4.16,1.76,8.32,4.64,11.36 c3.04,2.88,7.2,4.64,11.36,4.64c4.144,0,8.32-1.76,11.36-4.64c2.896-3.04,4.64-7.2,4.64-11.36S463.168,247.504,460.272,244.464z"/></g>
      <g><path d="M465.024,352H46.688C20.496,352,0,371.44,0,396.272v36.4C0,458.32,21.376,480,46.688,480h418.336 C490.48,480,512,458.32,512,432.672v-36.4C512,371.44,491.376,352,465.024,352z M480,432.672c0,7.888-7.28,15.328-14.976,15.328 H46.688C39.008,448,32,440.688,32,432.672v-36.4C32,388.208,39.392,384,46.688,384h418.336c7.264,0,14.976,4.288,14.976,12.272 V432.672z"/></g>
      <g><path d="M352,400H112c-8.848,0-16,7.152-16,16c0,8.848,7.152,16,16,16h240c8.848,0,16-7.152,16-16 C368,407.152,360.848,400,352,400z"/></g>
      <g><path d="M75.792,403.84c-5.92-5.92-16.816-5.92-22.56,0c-3.04,2.88-4.64,7.024-4.64,11.36c0,4.16,1.6,8.304,4.64,11.184 c2.864,3.056,7.024,4.816,11.2,4.816c4.32,0,8.32-1.776,11.36-4.816c3.024-2.864,4.64-7.024,4.64-11.184 C80.432,411.024,78.816,406.864,75.792,403.84z"/></g>
      <g><path d="M460.272,403.84c-5.92-5.92-16.64-5.92-22.72,0c-2.88,2.88-4.64,7.024-4.64,11.36c0,4.16,1.76,8.304,4.64,11.184 c3.04,3.056,7.2,4.816,11.36,4.816c4.144,0,8.32-1.776,11.36-4.816c2.896-2.864,4.64-7.024,4.64-11.184 C464.912,410.864,463.168,406.864,460.272,403.84z"/></g>
      <g><path d="M411.952,403.84c-5.92-5.92-16.64-5.92-22.56,0c-3.056,3.024-4.8,7.024-4.8,11.36c0,4.16,1.76,8.304,4.8,11.184 c2.864,3.056,7.04,4.816,11.2,4.816c4.32,0,8.32-1.776,11.36-4.816c3.024-2.864,4.64-7.024,4.64-11.184 C416.592,410.864,414.976,406.864,411.952,403.84z"/></g>
      <!-- Cloud shape in middle section -->
      <g><path d="M348.624,210.656c-11.28-18.032-31.024-29.2-52.848-29.2c-6.112,0-12.16,0.896-17.936,2.624 c-11.6-15.6-30.208-25.328-50.176-25.328c-31.008,0-56.8,22.72-61.616,52.384c-29.68,4.8-52.416,30.624-52.416,61.648 c0,32.432,25.12,59.632,56.88,62.56c1.44,0.416,2.944,0.656,4.528,0.656h146.624c0.08,0,0.176,0,0.272,0l22.704-0.416 c33.648-0.752,61.024-28.832,61.024-62.592C405.664,240.304,380.544,213.408,348.624,210.656z M344,303.6L200.128,304 l-24.72-0.384c-16.4-0.368-29.76-14.192-29.76-30.816c0-18.048,16.512-32.144,34.144-30.208c4.832,0.544,9.696-1.168,13.136-4.64 s5.104-8.336,4.528-13.184c-0.144-1.184-0.208-2.352-0.208-3.568c0-16.768,13.632-30.432,30.416-30.432 c12.528,0,23.952,7.872,28.4,19.552c1.712,4.48,5.344,7.952,9.888,9.472c4.576,1.504,9.536,0.928,13.6-1.648 c4.848-3.056,10.464-4.672,16.224-4.672c12.496,0,23.568,7.504,28.24,19.12c2.672,6.624,9.152,10.672,16.576,9.936 c0.64-0.08,1.296-0.08,1.952-0.08c16.672,0.048,31.12,13.472,31.12,30.56C373.664,289.504,360.336,303.248,344,303.6z"/></g>

  </g>
  <text x="480" y="178" text-anchor="middle" font-family="system-ui, -apple-system, sans-serif" font-size="12" class="label-text" font-weight="600">SOCKS5 Server</text>
  <text x="480" y="192" text-anchor="middle" font-family="system-ui, sans-serif" font-size="9" class="subtitle-text" font-weight="400">Dante</text>
  <g>
    <rect x="436" y="199" width="88" height="18" rx="3" class="ip-bg-proxy" opacity="0.92"/>
    <text x="480" y="212" text-anchor="middle" font-family="ui-monospace, monospace" font-size="9" class="ip-text" font-weight="600">198.51.100.10</text>
  </g>

  <!-- Target Server (Checkmark) -->
  <g transform="translate(830,140) scale(0.11) translate(-256,-256)" class="icon-fill">
    
      <g><path d="M465.505,31.999H46.479C20.863,31.999,0,52.686,0,78.142v35.711c0,25.439,20.863,46.143,46.479,46.143h419.043 c25.615,0,46.463-20.703,46.463-46.143V78.142C511.984,52.686,491.137,31.999,465.505,31.999z M479.985,113.852 c0,7.792-6.48,14.144-14.479,14.144H46.479c-7.984,0-14.48-6.352-14.48-14.144V78.142c0-7.808,6.496-14.144,14.48-14.144h419.043 c7.984,0,14.464,6.336,14.464,14.144V113.852z"/></g>
      <g><path d="M351.989,79.998H111.997c-8.848,0-16,7.168-16,16s7.152,16,16,16h239.992c8.848,0,16-7.168,16-16 S360.837,79.998,351.989,79.998z"/></g>
      <g><path d="M75.854,84.781c-6.08-5.92-16.799-5.92-22.719,0c-2.896,3.04-4.64,7.2-4.64,11.36c0,4.32,1.744,8.48,4.64,11.36 c3.024,2.88,7.2,4.64,11.36,4.64c4.16,0,8.32-1.76,11.36-4.64c3.024-3.04,4.64-7.2,4.64-11.36S78.878,87.821,75.854,84.781z"/></g>
      <g><path d="M460.162,84.941c-5.92-6.08-16.799-5.92-22.559-0.16c-3.024,3.04-4.64,7.2-4.64,11.36c0,4.32,1.616,8.32,4.64,11.36 c2.896,2.88,7.04,4.64,11.36,4.64c4.16,0,8.32-1.76,11.2-4.64c3.056-3.04,4.8-7.04,4.8-11.36 C464.961,91.981,463.202,87.821,460.162,84.941z"/></g>
      <g><path d="M412.003,84.781c-6.08-5.92-16.799-5.92-22.559,0c-3.04,3.04-4.8,7.2-4.8,11.36c0,4.32,1.76,8.32,4.64,11.36 c3.04,2.88,7.2,4.64,11.36,4.64s8.32-1.6,11.36-4.64c3.04-3.04,4.64-7.2,4.64-11.36S415.043,87.821,412.003,84.781z"/></g>
      <g><path d="M465.009,191.994h-113.02c-8.848,0-16,7.168-16,16s7.152,15.999,16,15.999h113.02c7.36,0,14.976,4.848,14.976,12.976 v36.399c0,7.792-7.008,14.624-14.976,14.624h-113.02c-8.848,0-16,7.168-16,15.999s7.152,16,16,16h113.02 c25.455,0,46.975-21.359,46.975-46.622v-36.399C511.984,212.169,490.929,191.994,465.009,191.994z"/></g>
      <g><path d="M159.995,287.991H46.703c-7.824,0-14.703-6.832-14.703-14.624v-36.399c0-8.128,7.472-12.976,14.703-12.976h113.292 c8.848,0,16-7.168,16-15.999s-7.152-16-16-16H46.703C20.511,191.994,0,211.737,0,236.969v36.399 c0,25.263,21.391,46.622,46.703,46.622h113.292c8.848,0,16-7.168,16-16S168.843,287.991,159.995,287.991z"/></g>
      <g><path d="M159.995,239.993h-47.998c-8.848,0-16,7.168-16,16s7.152,16,16,16h47.998c8.848,0,16-7.168,16-16 S168.843,239.993,159.995,239.993z"/></g>
      <g><path d="M75.854,244.456c-6.08-5.92-16.799-5.92-22.719,0c-2.896,3.04-4.64,7.2-4.64,11.36c0,4.32,1.744,8.32,4.64,11.36 c3.024,3.04,7.2,4.64,11.36,4.64c4.16,0,8.32-1.6,11.36-4.64c3.024-3.04,4.64-7.2,4.64-11.36S78.878,247.496,75.854,244.456z"/></g>
      <g><path d="M460.162,244.456c-5.92-5.92-16.639-5.92-22.559,0c-3.024,3.04-4.64,7.2-4.64,11.36c0,4.32,1.616,8.32,4.64,11.36 c2.896,2.88,7.04,4.64,11.36,4.64c4.16,0,8.32-1.76,11.2-4.64c3.056-2.88,4.8-7.04,4.8-11.36 C464.961,251.656,463.202,247.496,460.162,244.456z"/></g>
      <g><path d="M412.003,244.456c-5.92-5.92-16.799-5.76-22.559,0c-3.04,3.04-4.8,7.04-4.8,11.36c0,4.16,1.776,8.32,4.8,11.36 c2.88,2.88,7.04,4.64,11.2,4.64s8.32-1.76,11.36-4.64c3.04-3.04,4.64-7.2,4.64-11.36S415.043,247.496,412.003,244.456z"/></g>
      <g><path d="M465.505,351.989H46.479C20.863,351.989,0,372.676,0,398.132v35.711c0,25.439,20.863,46.143,46.479,46.143h419.043 c25.615,0,46.463-20.703,46.463-46.143v-35.711C511.984,372.676,491.137,351.989,465.505,351.989z M479.985,433.842 c0,7.792-6.48,14.144-14.479,14.144H46.479c-7.984,0-14.48-6.352-14.48-14.144v-35.711c0-7.808,6.496-14.144,14.48-14.144h419.043 c7.984,0,14.464,6.336,14.464,14.144V433.842z"/></g>
      <g><path d="M351.989,399.988H111.997c-8.848,0-16,7.168-16,16s7.152,16,16,16h239.992c8.848,0,16-7.168,16-16 S360.837,399.988,351.989,399.988z"/></g>
      <g><path d="M75.854,403.811c-6.08-5.92-16.799-5.92-22.719,0c-2.896,3.04-4.64,7.2-4.64,11.36c0,4.32,1.744,8.32,4.64,11.36 c3.024,2.88,7.2,4.64,11.36,4.64c4.16,0,8.32-1.76,11.36-4.64c3.024-3.04,4.64-7.2,4.64-11.36S78.878,406.851,75.854,403.811z"/></g>
      <g><path d="M460.162,403.811c-5.92-5.92-16.639-5.92-22.559,0c-3.024,3.04-4.64,7.2-4.64,11.36c0,4.32,1.616,8.32,4.64,11.2 c2.896,3.04,7.04,4.8,11.36,4.8c4.16,0,8.32-1.76,11.2-4.64c3.056-3.04,4.8-7.04,4.8-11.36 C464.961,411.011,463.202,406.851,460.162,403.811z"/></g>
      <g><path d="M412.003,403.811c-6.08-5.92-16.799-5.92-22.559,0c-3.04,3.04-4.8,7.2-4.8,11.36c0,4.32,1.76,8.32,4.64,11.2 c3.04,3.04,7.04,4.8,11.36,4.8c4.16,0,8.32-1.76,11.36-4.64c3.04-3.04,4.64-7.2,4.64-11.36S415.043,406.851,412.003,403.811z"/></g>
      <!-- Circle with checkmark in middle section -->
      <g><path d="M256.984,143.5c-61.486,0-111.5,50.014-111.5,111.485c0,61.502,50.014,111.532,111.5,111.532 c61.47,0,111.501-50.03,111.517-111.532C368.5,193.514,318.47,143.5,256.984,143.5z M256.984,334.518 c-43.839,0-79.501-35.679-79.501-79.534c0-43.823,35.663-79.486,79.501-79.486c43.839,0,79.502,35.647,79.518,79.486 C336.501,298.839,300.823,334.518,256.984,334.518z"/></g>
      <g><path d="M316.614,211.881c-6.256-6.256-16.367-6.256-22.623,0l-53.982,53.982L221.177,247c-6.256-6.272-16.384-6.256-22.639-0.016 s-6.256,16.367-0.016,22.623l30.159,30.191c2.992,3.008,7.072,4.688,11.328,4.688c4.256,0,8.32-1.696,11.312-4.688l65.294-65.294 C322.87,228.249,322.87,218.137,316.614,211.881z"/></g>

  </g>
  <text x="830" y="178" text-anchor="middle" font-family="system-ui, -apple-system, sans-serif" font-size="12" class="label-text" font-weight="600">Target Server</text>
  <text x="830" y="192" text-anchor="middle" font-family="system-ui, sans-serif" font-size="9" class="target-sub" font-weight="400">Sees proxy IP only</text>
  <g>
    <rect x="786" y="199" width="88" height="18" rx="3" class="ip-bg-target" opacity="0.92"/>
    <text x="830" y="212" text-anchor="middle" font-family="ui-monospace, monospace" font-size="9" class="ip-text" font-weight="600">198.51.100.10</text>
  </g>
</svg>