<svg xmlns="http://www.w3.org/2000/svg" viewBox="27 33 346 326">
  <path fill="#000000" d="M77.397 33.101C77.133 33.53 75.357 43.008 74.515 48.485 69.502 81.114 70.035 115.462 76.086 149.719l1.12 6.338-11.41 11.533c-6.276 6.344-12.008 12.253-12.74 13.133l-1.329 1.6 6.752.035c3.714.018 7.255.163 7.869.32l1.116.285-2.392 1.623c-15.377 10.427-31.897 31.172-37.526 47.122-.567 1.607-.977 1.604 4.511.028 8.616-2.474 22.085-5.124 24.827-4.884l1.172.102-1.159 1.914c-8.252 13.626-14.23 32.071-15.713 48.484-.351 3.891-.649 3.7 2.72 1.75 7.999-4.631 16.126-7.711 23.07-8.744l1.423-.212-3.895 3.973c-2.143 2.186-3.896 4.111-3.896 4.278 0 .176 2.396.378 5.662.477 30.334.922 57.734 14.109 84.038 40.447l7.883 7.892-1.942-3.878c-17.511-34.978-48.213-65.872-73.95-74.412l-1.755-.582 1.436-.224c8.61-1.339 26.805.877 37.138 4.525 25.93 9.152 48.244 33.372 60.185 65.326.896 2.398 1.664 4.398 1.705 4.444.042.047.602-.135 1.244-.404 8.949-3.739 24.531-3.886 34.949-.329 1.302.444 2.39.772 2.418.729.028-.044.449-1.219.935-2.613 10.793-30.936 34.215-57.165 59.352-66.465 11.592-4.288 27.857-6.497 38.386-5.212l1.703.207-2.565.907c-22.629 8-48.736 32.461-66.782 62.57-2.273 3.793-8.221 14.827-8.221 15.253-.001.143 1.17-1.005 2.598-2.552 26.729-28.922 57.204-44.483 89.427-45.664l5.741-.211-4.121-4.226c-2.267-2.325-3.969-4.227-3.783-4.227 4.479 0 16.251 4.357 23.649 8.753 1.642.976 3.086 1.774 3.209 1.774.123 0 .046-1.83-.173-4.067-1.577-16.154-6.989-33.164-14.808-46.543-1.045-1.786-1.899-3.318-1.899-3.402 0-.794 17.573 2.624 25.993 5.056 2.63.76 4.826 1.337 4.881 1.282.055-.055-.698-1.945-1.674-4.2-7.085-16.375-21.146-33.604-35.886-43.974l-2.699-1.898 1.104-.282c.607-.155 4.142-.298 7.856-.316l6.752-.035-2.919-3.203c-1.605-1.762-7.448-7.724-12.983-13.251l-10.065-10.048 1.032-5.582c1.91-10.343 3.241-20.607 4.322-33.333.553-6.513.555-38.441.002-44.976-1.122-13.265-2.386-22.936-4.342-33.201-1.275-6.696-.774-6.168-4.361-4.589-27.168 11.955-54.37 33.199-84.218 65.772l-1.089 1.187-2.392-.471c-18.859-3.711-47.569-3.567-64.949.328-.543.121-1.533-.789-5.058-4.649-25.88-28.34-54.282-50.21-80.515-62-3.536-1.59-3.442-1.559-3.66-1.206Zm117.021 295.773c-5.69.729-12.154 2.98-16.61 5.787l-2.645 1.666.657.922c3.39 4.76 17.787 17.781 22.984 20.787l1.515.876 1.515-.881c5.192-3.021 14.351-11.114 21.179-18.714 2.999-3.338 2.974-2.757.193-4.478-8.046-4.978-18.911-7.229-28.788-5.965Z"/>
</svg>
