<svg viewBox="0 0 960 280" xmlns="http://www.w3.org/2000/svg">
  <defs>
    <marker id="ar1" viewBox="0 0 10 10" refX="9" refY="5" markerWidth="7" markerHeight="7" orient="auto-start-reverse"><path d="M 0 1 L 10 5 L 0 9 z" fill="#0284c7"/></marker>
    <marker id="ar2" viewBox="0 0 10 10" refX="9" refY="5" markerWidth="7" markerHeight="7" orient="auto-start-reverse"><path d="M 0 1 L 10 5 L 0 9 z" fill="#059669"/></marker>
  </defs>
  <style>
  /* Light theme (default) */
  .title-text { fill: #1e293b; }
  .subtitle-text { fill: #475569; }
  .label-text { fill: #334155; }
  .icon-fill { fill: #334155; }
  .flow-label { fill: #64748b; }
  .ip-bg-client { fill: #475569; }
  .ip-bg-proxy { fill: #2563eb; }
  .ip-bg-res { fill: #15803d; }
  .ip-bg-target { fill: #059669; }
  .ip-text { fill: #ffffff; }
  .badge-text { fill: #92400e; }
  .badge-text-purple { fill: #5b21b6; }
  .badge-text-blue { fill: #0c4a6e; }
  .target-sub { fill: #64748b; }
  .conn-line { stroke: #94a3b8; }
  .conn-line-orange { stroke: #fdba74; }
  .conn-line-purple { stroke: #c4b5fd; }
  .conn-line-cyan { stroke: #67e8f9; }
  .conn-line-green { stroke: #86efac; }
  .conn-line-amber { stroke: #fde68a; }
  .residential-label { fill: #15803d; }

  /* Dark theme */
  @media (prefers-color-scheme: dark) {
    .title-text { fill: #e2e8f0; }
    .subtitle-text { fill: #94a3b8; }
    .label-text { fill: #cbd5e1; }
    .icon-fill { fill: #e2e8f0; }
    .flow-label { fill: #94a3b8; }
    .ip-bg-client { fill: #475569; }
    .ip-bg-proxy { fill: #3b82f6; }
    .ip-bg-res { fill: #16a34a; }
    .ip-bg-target { fill: #059669; }
    .ip-text { fill: #ffffff; }
    .badge-text { fill: #92400e; }
    .badge-text-purple { fill: #5b21b6; }
    .badge-text-blue { fill: #0c4a6e; }
    .target-sub { fill: #94a3b8; }
    .conn-line { stroke: #475569; }
    .conn-line-orange { stroke: #c2410c; }
    .conn-line-purple { stroke: #7c3aed; }
    .conn-line-cyan { stroke: #0891b2; }
    .conn-line-green { stroke: #059669; }
    .conn-line-amber { stroke: #b45309; }
    .residential-label { fill: #4ade80; }
  }
</style>

  <text x="480" y="24" text-anchor="middle" font-family="system-ui, -apple-system, sans-serif" font-size="16" class="title-text" font-weight="700">MTProto Proxy</text>
  <text x="480" y="40" text-anchor="middle" font-family="system-ui, sans-serif" font-size="9" class="subtitle-text" font-weight="400">Telegram-dedicated proxy via MTG — bypass Telegram restrictions</text>

  <line x1="161" y1="134" x2="442" y2="134" class="conn-line-cyan" stroke-width="1.5" stroke-dasharray="6,3" marker-end="url(#ar1)"/>
  <line x1="511" y1="134" x2="792" y2="134" class="conn-line-cyan" stroke-width="1.5" stroke-dasharray="6,3" marker-end="url(#ar1)"/>
  <line x1="792" y1="146" x2="511" y2="146" class="conn-line-green" stroke-width="1.5" stroke-dasharray="6,3" marker-end="url(#ar2)"/>
  <line x1="442" y1="146" x2="161" y2="146" class="conn-line-green" stroke-width="1.5" stroke-dasharray="6,3" marker-end="url(#ar2)"/>

  <text x="301" y="110" text-anchor="middle" font-family="system-ui, sans-serif" font-size="8" fill="#0284c7" font-style="italic">ENCRYPTED (your IP)</text>
  <text x="651" y="120" text-anchor="middle" font-family="system-ui, sans-serif" font-size="8" fill="#0284c7" font-style="italic">FORWARDED (proxy IP)</text>
  <text x="651" y="164" text-anchor="middle" font-family="system-ui, sans-serif" font-size="8" fill="#059669" font-style="italic">RESPONSE</text>
  <text x="301" y="164" text-anchor="middle" font-family="system-ui, sans-serif" font-size="8" fill="#059669" font-style="italic">RESPONSE</text>

  <circle r="4" fill="#0284c7" opacity="0.85"><animateMotion dur="2s" begin="0s" repeatCount="indefinite" path="M161,134 L442,134"/></circle>
  <circle r="2.5" fill="#38bdf8" opacity="0.85"><animateMotion dur="2s" begin="0.3s" repeatCount="indefinite" path="M161,134 L442,134"/></circle>
  <circle r="4" fill="#0284c7" opacity="0.85"><animateMotion dur="2s" begin="2.2s" repeatCount="indefinite" path="M511,134 L792,134"/></circle>
  <circle r="2.5" fill="#38bdf8" opacity="0.85"><animateMotion dur="2s" begin="2.5s" repeatCount="indefinite" path="M511,134 L792,134"/></circle>
  <circle r="4" fill="#059669" opacity="0.85"><animateMotion dur="2s" begin="4.4s" repeatCount="indefinite" path="M792,146 L511,146"/></circle>
  <circle r="2.5" fill="#34d399" opacity="0.85"><animateMotion dur="2s" begin="4.7s" repeatCount="indefinite" path="M792,146 L511,146"/></circle>
  <circle r="4" fill="#059669" opacity="0.85"><animateMotion dur="2s" begin="6.6s" repeatCount="indefinite" path="M442,146 L161,146"/></circle>
  <circle r="2.5" fill="#34d399" opacity="0.85"><animateMotion dur="2s" begin="6.9s" repeatCount="indefinite" path="M442,146 L161,146"/></circle>

  <circle cx="480" cy="140" r="28" fill="#0284c7" opacity="0"><animate attributeName="r" values="28;62;28" dur="3s" repeatCount="indefinite"/><animate attributeName="opacity" values="0.35;0;0.35" dur="3s" repeatCount="indefinite"/></circle>

  <!-- TLS badge -->
  <g transform="translate(301,122)">
    <rect x="-24" y="-9" width="48" height="18" rx="9" fill="#e0f2fe" stroke="#0284c7" stroke-width="1"/>
    <text x="0" y="3" text-anchor="middle" font-family="system-ui" font-size="8" class="badge-text-blue" font-weight="700">TLS</text>
  </g>

  <g transform="translate(480,98)">
    <rect x="-32" y="-10" width="64" height="20" rx="10" fill="#e0f2fe" stroke="#0284c7" stroke-width="1"/>
    <text x="0" y="3" text-anchor="middle" font-family="system-ui" font-size="8" class="badge-text-blue" font-weight="700">IP changes</text>
  </g>

  <!-- Client (Smartphone) -->
  <g transform="translate(130,140) scale(0.1) translate(-256,-256)" class="icon-fill">
    
      <g><path d="M353.728,0h-195.44C123.936,0,96,27.92,96,62.256v387.488C96,484.08,123.936,512,158.288,512h195.424 C388.064,512,416,484.08,416,449.76V62.256C416,27.92,388.064,0,353.728,0z M384,449.744C384,466.432,370.416,480,353.728,480 h-195.44C141.584,480,128,466.432,128,449.76V62.256C128,45.568,141.584,32,158.288,32h195.424C370.416,32,384,45.568,384,62.256 V449.744z"/></g>
      <g><circle cx="256.32" cy="450.24" r="16"/></g>
      <g><path d="M272,48h-32c-8.832,0-16,7.152-16,16s7.168,16,16,16h32c8.832,0,16-7.152,16-16S280.832,48,272,48z"/></g>
      <g><path d="M352,96H160c-8.832,0-16,7.152-16,16v288c0,8.848,7.168,16,16,16h192c8.832,0,16-7.152,16-16V112 C368,103.152,360.832,96,352,96z M336,384H176V128h160V384z"/></g>

  </g>
  <text x="130" y="178" text-anchor="middle" font-family="system-ui, -apple-system, sans-serif" font-size="12" class="label-text" font-weight="600">Telegram App</text>
  <g>
    <rect x="86" y="186" width="88" height="18" rx="3" class="ip-bg-client" opacity="0.92"/>
    <text x="130" y="199" text-anchor="middle" font-family="ui-monospace, monospace" font-size="9" class="ip-text" font-weight="600">203.0.113.5</text>
  </g>

  <!-- MTProto Proxy (Cloud) -->
  <g transform="translate(480,140) scale(0.1) translate(-256,-256)" class="icon-fill">
    
      <g><path d="M465.024,32H46.688C20.944,32,0,52.32,0,77.28v36.4C0,139.232,20.944,160,46.688,160H160c8.848,0,16-7.168,16-16 c0-8.832-7.152-16-16-16H46.688C38.72,128,32,121.44,32,113.68v-36.4C32,69.84,38.448,64,46.688,64h418.336 C473.28,64,480,69.968,480,77.28v36.4c0,7.632-7.008,14.32-14.976,14.32H288c-8.848,0-16,7.168-16,16c0,8.832,7.152,16,16,16 h177.024C490.48,160,512,138.784,512,113.68v-36.4C512,52.32,490.944,32,465.024,32z"/></g>
      <g><path d="M352,80H112c-8.848,0-16,7.168-16,16c0,8.832,7.152,16,16,16h240c8.848,0,16-7.168,16-16C368,87.168,360.848,80,352,80z"/></g>
      <g><path d="M75.792,84.784c-5.92-5.92-16.816-5.76-22.56,0c-3.04,2.88-4.64,7.04-4.64,11.36s1.6,8.48,4.64,11.36 c2.864,2.88,7.024,4.64,11.2,4.64c4.32,0,8.48-1.76,11.36-4.64c3.024-3.04,4.64-7.2,4.64-11.36 C80.432,91.984,78.816,87.824,75.792,84.784z"/></g>
      <g><path d="M460.272,84.784c-5.92-5.92-16.8-5.92-22.72,0c-2.88,3.04-4.64,7.2-4.64,11.36c0,4.16,1.76,8.32,4.64,11.36 c3.04,2.88,7.2,4.64,11.36,4.64c4.144,0,8.32-1.76,11.36-4.64c2.896-3.04,4.64-7.2,4.64-11.36 C464.912,91.984,463.168,87.824,460.272,84.784z"/></g>
      <g><path d="M411.952,84.784c-5.92-5.92-16.64-5.92-22.56,0c-3.056,3.04-4.8,7.2-4.8,11.36c0,4.16,1.76,8.32,4.8,11.36 c3.04,3.04,7.04,4.64,11.2,4.64c4.32,0,8.32-1.6,11.36-4.64c3.024-3.04,4.64-7.2,4.64-11.36 C416.592,91.984,414.976,87.824,411.952,84.784z"/></g>
      <g><path d="M465.024,192H400c-8.848,0-16,7.168-16,16c0,8.832,7.152,16,16,16h65.024c7.36,0,14.976,4.832,14.976,12.928v36.4 c0,7.68-7.136,14.672-14.976,14.672H432c-8.848,0-16,7.152-16,16c0,8.848,7.152,16,16,16h33.024 C490.48,320,512,298.64,512,273.344v-36.4C512,212.16,490.944,192,465.024,192z"/></g>
      <g><path d="M112,192H46.688C20.496,192,0,211.744,0,236.928v36.4C0,298.64,21.376,320,46.688,320H80c8.848,0,16-7.152,16-16 c0-8.848-7.152-16-16-16H46.688C38.864,288,32,281.152,32,273.344v-36.4C32,228.832,39.472,224,46.688,224H112 c8.848,0,16-7.168,16-16C128,199.168,120.848,192,112,192z"/></g>
      <g><path d="M75.792,244.464c-5.92-5.92-16.816-5.92-22.56,0c-3.04,2.88-4.64,7.04-4.64,11.36c0,4.32,1.6,8.32,4.64,11.2 c2.864,3.04,7.024,4.8,11.2,4.8c4.32,0,8.32-1.76,11.36-4.64c3.024-3.04,4.64-7.2,4.64-11.36 C80.432,251.664,78.816,247.504,75.792,244.464z"/></g>
      <g><path d="M460.272,244.464c-6.08-5.92-16.64-5.92-22.72,0c-2.88,3.04-4.64,7.04-4.64,11.36c0,4.16,1.76,8.32,4.64,11.36 c3.04,2.88,7.2,4.64,11.36,4.64c4.144,0,8.32-1.76,11.36-4.64c2.896-3.04,4.64-7.2,4.64-11.36S463.168,247.504,460.272,244.464z"/></g>
      <g><path d="M465.024,352H46.688C20.496,352,0,371.44,0,396.272v36.4C0,458.32,21.376,480,46.688,480h418.336 C490.48,480,512,458.32,512,432.672v-36.4C512,371.44,491.376,352,465.024,352z M480,432.672c0,7.888-7.28,15.328-14.976,15.328 H46.688C39.008,448,32,440.688,32,432.672v-36.4C32,388.208,39.392,384,46.688,384h418.336c7.264,0,14.976,4.288,14.976,12.272 V432.672z"/></g>
      <g><path d="M352,400H112c-8.848,0-16,7.152-16,16c0,8.848,7.152,16,16,16h240c8.848,0,16-7.152,16-16 C368,407.152,360.848,400,352,400z"/></g>
      <g><path d="M75.792,403.84c-5.92-5.92-16.816-5.92-22.56,0c-3.04,2.88-4.64,7.024-4.64,11.36c0,4.16,1.6,8.304,4.64,11.184 c2.864,3.056,7.024,4.816,11.2,4.816c4.32,0,8.32-1.776,11.36-4.816c3.024-2.864,4.64-7.024,4.64-11.184 C80.432,411.024,78.816,406.864,75.792,403.84z"/></g>
      <g><path d="M460.272,403.84c-5.92-5.92-16.64-5.92-22.72,0c-2.88,2.88-4.64,7.024-4.64,11.36c0,4.16,1.76,8.304,4.64,11.184 c3.04,3.056,7.2,4.816,11.36,4.816c4.144,0,8.32-1.776,11.36-4.816c2.896-2.864,4.64-7.024,4.64-11.184 C464.912,410.864,463.168,406.864,460.272,403.84z"/></g>
      <g><path d="M411.952,403.84c-5.92-5.92-16.64-5.92-22.56,0c-3.056,3.024-4.8,7.024-4.8,11.36c0,4.16,1.76,8.304,4.8,11.184 c2.864,3.056,7.04,4.816,11.2,4.816c4.32,0,8.32-1.776,11.36-4.816c3.024-2.864,4.64-7.024,4.64-11.184 C416.592,410.864,414.976,406.864,411.952,403.84z"/></g>
      <!-- Cloud shape in middle section -->
      <g><path d="M348.624,210.656c-11.28-18.032-31.024-29.2-52.848-29.2c-6.112,0-12.16,0.896-17.936,2.624 c-11.6-15.6-30.208-25.328-50.176-25.328c-31.008,0-56.8,22.72-61.616,52.384c-29.68,4.8-52.416,30.624-52.416,61.648 c0,32.432,25.12,59.632,56.88,62.56c1.44,0.416,2.944,0.656,4.528,0.656h146.624c0.08,0,0.176,0,0.272,0l22.704-0.416 c33.648-0.752,61.024-28.832,61.024-62.592C405.664,240.304,380.544,213.408,348.624,210.656z M344,303.6L200.128,304 l-24.72-0.384c-16.4-0.368-29.76-14.192-29.76-30.816c0-18.048,16.512-32.144,34.144-30.208c4.832,0.544,9.696-1.168,13.136-4.64 s5.104-8.336,4.528-13.184c-0.144-1.184-0.208-2.352-0.208-3.568c0-16.768,13.632-30.432,30.416-30.432 c12.528,0,23.952,7.872,28.4,19.552c1.712,4.48,5.344,7.952,9.888,9.472c4.576,1.504,9.536,0.928,13.6-1.648 c4.848-3.056,10.464-4.672,16.224-4.672c12.496,0,23.568,7.504,28.24,19.12c2.672,6.624,9.152,10.672,16.576,9.936 c0.64-0.08,1.296-0.08,1.952-0.08c16.672,0.048,31.12,13.472,31.12,30.56C373.664,289.504,360.336,303.248,344,303.6z"/></g>

  </g>
  <text x="480" y="178" text-anchor="middle" font-family="system-ui, -apple-system, sans-serif" font-size="12" class="label-text" font-weight="600">MTProto Proxy</text>
  <text x="480" y="192" text-anchor="middle" font-family="system-ui, sans-serif" font-size="9" class="subtitle-text" font-weight="400">MTG</text>
  <g>
    <rect x="436" y="199" width="88" height="18" rx="3" class="ip-bg-proxy" opacity="0.92"/>
    <text x="480" y="212" text-anchor="middle" font-family="ui-monospace, monospace" font-size="9" class="ip-text" font-weight="600">198.51.100.10</text>
  </g>

  <!-- Telegram Server (Lock) -->
  <g transform="translate(830,140) scale(0.1) translate(-256,-256)" class="icon-fill">
    
      <g><path d="M465.024,32H46.688C20.512,32,0,51.632,0,76.688v36.368C0,138.512,21.376,160,46.688,160H160c8.832,0,16-7.168,16-16 c0-8.832-7.168-16-16-16H46.688C38.864,128,32,121.024,32,113.056V76.688C32,68.448,39.568,64,46.688,64h418.336 C472.384,64,480,68.736,480,76.688v36.368c0,7.824-7.136,14.944-14.976,14.944H352c-8.832,0-16,7.168-16,16 c0,8.832,7.168,16,16,16h113.024C490.496,160,512,138.512,512,113.056V76.688C512,51.632,491.36,32,465.024,32z"/></g>
      <g><path d="M352,80H112c-8.832,0-16,7.168-16,16c0,8.832,7.168,16,16,16h240c8.832,0,16-7.168,16-16C368,87.168,360.832,80,352,80z"/></g>
      <g><path d="M75.792,84.144c-5.92-5.92-16.64-5.92-22.56,0.16c-3.04,2.88-4.8,7.04-4.8,11.2c0,4.16,1.76,8.32,4.8,11.36 c2.88,2.88,7.04,4.64,11.2,4.64c4.32,0,8.48-1.76,11.36-4.64c3.04-3.04,4.8-7.2,4.8-11.36 C80.592,91.344,78.832,87.184,75.792,84.144z"/></g>
      <g><path d="M460.272,84.144c-6.08-5.92-16.64-5.92-22.72,0c-2.88,3.04-4.64,7.2-4.64,11.36c0,4.16,1.76,8.32,4.64,11.36 c3.04,2.88,7.2,4.64,11.36,4.64c4.16,0,8.32-1.76,11.36-4.64c2.88-3.04,4.64-7.2,4.64-11.36 C464.912,91.344,463.152,87.184,460.272,84.144z"/></g>
      <g><path d="M411.952,84.144c-5.92-5.92-16.64-5.92-22.56,0c-3.04,3.04-4.64,7.2-4.64,11.36c0,4.32,1.6,8.32,4.64,11.36 c2.88,2.88,7.04,4.64,11.36,4.64c4.16,0,8.32-1.76,11.2-4.64c3.04-3.04,4.64-7.2,4.64-11.36 C416.592,91.344,414.992,87.184,411.952,84.144z"/></g>
      <g><path d="M465.024,192H368c-8.832,0-16,7.168-16,16c0,8.832,7.168,16,16,16h97.024c7.264,0,14.976,4.336,14.976,12.336v36.368 c0,7.872-7.28,15.296-14.976,15.296H384c-8.832,0-16,7.152-16,16c0,8.848,7.168,16,16,16h81.024 C490.496,320,512,298.336,512,272.704v-36.368C512,211.472,491.36,192,465.024,192z"/></g>
      <g><path d="M144,192H46.688C20.512,192,0,211.472,0,236.336v36.368C0,298.336,21.376,320,46.688,320H128c8.832,0,16-7.152,16-16 c0-8.848-7.168-16-16-16H46.688C39.008,288,32,280.704,32,272.704v-36.368C32,228.24,39.392,224,46.688,224H144 c8.832,0,16-7.168,16-16C160,199.168,152.832,192,144,192z"/></g>
      <g><path d="M128,240h-16c-8.832,0-16,7.152-16,16c0,8.848,7.168,16,16,16h16c8.832,0,16-7.168,16-16C144,247.168,136.832,240,128,240z"/></g>
      <g><path d="M75.792,243.824c-5.92-5.92-16.64-5.92-22.56,0c-3.04,3.04-4.8,7.2-4.8,11.36s1.76,8.32,4.8,11.36 c3.04,2.88,7.04,4.64,11.2,4.64c4.32,0,8.32-1.76,11.36-4.64c3.04-3.04,4.64-7.2,4.64-11.36S78.832,246.864,75.792,243.824z"/></g>
      <g><path d="M460.272,243.824c-5.92-5.92-16.8-5.92-22.72,0c-2.88,3.04-4.64,7.2-4.64,11.36c0,4.32,1.76,8.32,4.64,11.36 c3.04,2.88,7.2,4.64,11.36,4.64c4.16,0,8.32-1.76,11.36-4.64c2.88-3.04,4.64-7.04,4.64-11.36 C464.912,251.024,463.152,246.864,460.272,243.824z"/></g>
      <g><path d="M411.952,243.824c-5.92-5.92-16.64-5.92-22.56,0c-3.04,3.04-4.8,7.2-4.8,11.36c0,4.32,1.76,8.32,4.8,11.36 c3.04,2.88,7.04,4.64,11.2,4.64c4.32,0,8.32-1.76,11.36-4.64c3.04-3.04,4.8-7.2,4.8-11.36S414.992,246.864,411.952,243.824z"/></g>
      <g><path d="M465.52,352H46.464C20.848,352,0,372.688,0,398.16v35.712C0,459.312,20.848,480,46.464,480h419.072 C491.152,480,512,459.312,512,433.856v-35.712C512,372.688,491.152,352,465.52,352z M480,433.872 c0,7.776-6.496,14.128-14.48,14.128H46.464C38.496,448,32,441.648,32,433.856v-35.712C32,390.336,38.496,384,46.464,384h419.072 c7.968,0,14.464,6.336,14.464,14.16V433.872z"/></g>
      <g><path d="M352,400H112c-8.832,0-16,7.152-16,16c0,8.848,7.168,16,16,16h240c8.832,0,16-7.152,16-16 C368,407.152,360.832,400,352,400z"/></g>
      <g><path d="M75.792,403.2c-5.92-5.92-16.8-5.76-22.56,0c-3.04,3.024-4.8,7.184-4.8,11.36c0,4.16,1.76,8.32,4.8,11.36 c2.88,2.88,7.04,4.64,11.36,4.64c4.16,0,8.16-1.776,11.2-4.64c3.04-3.04,4.64-7.2,4.64-11.36 C80.432,410.384,78.832,406.224,75.792,403.2z"/></g>
      <g><path d="M460.272,403.2c-5.92-5.92-16.8-5.92-22.72,0c-2.88,3.024-4.64,7.184-4.64,11.36c0,4.16,1.76,8.32,4.64,11.36 c3.04,2.88,7.2,4.64,11.36,4.64c4.16,0,8.32-1.776,11.36-4.64c2.88-3.04,4.64-7.2,4.64-11.36 C464.912,410.384,463.152,406.224,460.272,403.2z"/></g>
      <g><path d="M411.952,403.2c-5.92-5.92-16.64-5.92-22.56,0c-3.04,3.024-4.64,7.024-4.64,11.36c0,4.16,1.6,8.32,4.64,11.36 c2.88,2.88,7.04,4.64,11.2,4.64c4.32,0,8.48-1.776,11.36-4.64c3.04-3.04,4.64-7.2,4.64-11.36 C416.592,410.384,414.992,406.224,411.952,403.2z"/></g>
      <!-- Lock shape in middle section -->
      <g><path d="M305.424,192.064C304.96,192.016,304.48,192,304,192h-91.84c-27.792,0-52.16,23.376-52.16,50.016v44.64 C160,312.928,184.368,336,212.16,336h90.8C330,336,352,313.856,352,286.656v-44.64C352,215.28,331.328,193.376,305.424,192.064z M320,286.656c0,9.552-7.648,17.344-17.04,17.344h-90.8c-10.176,0-20.16-8.608-20.16-17.344v-44.64 c0-8.928,10.176-18.016,20.16-18.016h90.8c9.232,0,17.04,8.256,17.04,18.016V286.656z"/></g>
      <g><path d="M256.304,132.784c-39.536,0-71.696,32.144-71.696,71.68c0,8.832,7.168,16,16,16c8.832,0,16-7.168,16-16 c0-21.872,17.808-39.68,39.696-39.68c21.888,0,39.696,17.792,39.696,39.68c0,8.832,7.168,16,16,16c8.832,0,16-7.152,16-16 C328,164.944,295.84,132.784,256.304,132.784z"/></g>
      <g><path d="M268.912,244.144c-5.92-5.92-16.64-5.92-22.56,0c-3.04,3.04-4.8,7.2-4.8,11.36s1.76,8.32,4.8,11.36 c2.88,2.88,7.04,4.64,11.2,4.64c4.32,0,8.32-1.76,11.36-4.64c3.04-3.04,4.64-7.2,4.64-11.36S271.952,247.184,268.912,244.144z"/></g>

  </g>
  <text x="830" y="178" text-anchor="middle" font-family="system-ui, -apple-system, sans-serif" font-size="12" class="label-text" font-weight="600">Telegram Server</text>
  <text x="830" y="192" text-anchor="middle" font-family="system-ui, sans-serif" font-size="9" class="target-sub" font-weight="400">Sees proxy IP only</text>
  <g>
    <rect x="786" y="199" width="88" height="18" rx="3" class="ip-bg-target" opacity="0.92"/>
    <text x="830" y="212" text-anchor="middle" font-family="ui-monospace, monospace" font-size="9" class="ip-text" font-weight="600">198.51.100.10</text>
  </g>
</svg>