<svg xmlns="http://www.w3.org/2000/svg" viewBox="0 0 1000 820" width="100%" height="100%" style="background: transparent; font-family: ui-sans-serif, system-ui, -apple-system, sans-serif;">
  <defs>
    <!-- Background Grid Pattern for Popup -->
    <pattern id="grid" width="32" height="32" patternUnits="userSpaceOnUse">
      <path d="M 32 0 L 0 0 0 32" fill="none" stroke="rgba(249, 115, 22, 0.05)" stroke-width="1"/>
    </pattern>

    <!-- Radial Glow for Popup Active Tab -->
    <radialGradient id="glow-orange" cx="100%" cy="0%" r="60%">
      <stop offset="0%" stop-color="rgba(249, 115, 22, 0.25)" />
      <stop offset="100%" stop-color="rgba(249, 115, 22, 0)" />
    </radialGradient>

    <!-- Glow Filter for Orb -->
    <filter id="core-glow">
      <feGaussianBlur stdDeviation="12" result="blur" />
      <feComposite in="SourceGraphic" in2="blur" operator="over" />
    </filter>

    <clipPath id="popup-clip">
      <rect width="380" height="665" rx="12" />
    </clipPath>

    <!-- Core Animations -->
    <style>
      .text-sans { font-family: ui-sans-serif, system-ui, -apple-system, BlinkMacSystemFont, "Segoe UI", Roboto, sans-serif; }
      .text-mono { font-family: ui-monospace, "JetBrains Mono", "Fira Code", monospace; }

      @keyframes spin {
        to { transform: rotate(360deg); }
      }
      @keyframes spin-reverse {
        to { transform: rotate(-360deg); }
      }
      @keyframes pulse {
        0% { transform: scale(0.55); opacity: 0.35; }
        100% { transform: scale(1.1); opacity: 0; }
      }
      @keyframes foxBreathe {
        0%, 100% { transform: scale(1); }
        50% { transform: scale(1.08); }
      }
      @keyframes blink {
        0%, 100% { opacity: 1; }
        50% { opacity: 0.4; }
      }

      /* Cross-fade looping animation for stats */
      @keyframes fadeVal {
        0%, 28% { opacity: 1; }
        33%, 97% { opacity: 0; }
        100% { opacity: 1; }
      }

      .stat-val { animation: fadeVal 6s infinite; opacity: 0; }
      .delay-0 { animation-delay: 0s; }
      .delay-2 { animation-delay: 2s; }
      .delay-4 { animation-delay: 4s; }

      .ring-origin { transform-origin: 190px 220px; }

      /* Orb Active State Rings */
      .orb-ring-1 { stroke: #22c55e; stroke-width: 1; opacity: 0.35; stroke-dasharray: 4 8; animation: spin 22s linear infinite; }
      .orb-ring-2 { stroke: #22c55e; stroke-width: 1.5; opacity: 0.5; stroke-dasharray: 60 220; animation: spin-reverse 14s linear infinite; }
      .orb-ring-3 { stroke: #22c55e; stroke-width: 1; opacity: 0.25; stroke-dasharray: 1 4; animation: spin 30s linear infinite; }

      .orb-pulse-1 { fill: #22c55e; animation: pulse 2.4s ease-out infinite; }
      .orb-pulse-2 { fill: #22c55e; animation: pulse 2.4s ease-out infinite 1.2s; opacity: 0; }

      .orb-fox { color: #22c55e; animation: foxBreathe 3.2s ease-in-out infinite; transform-origin: 190px 220px; }
      .status-dot { animation: blink 2s infinite; }
    </style>
  </defs>

  <!-- ================= BROWSER WINDOW ================= -->
  <g transform="translate(50, 50)">
    <!-- Browser Border/Background -->
    <rect width="900" height="640" rx="16" fill="#11151c" stroke="rgba(255,255,255,0.1)" />

    <!-- Browser Top Bar -->
    <path d="M 0 16 A 16 16 0 0 1 16 0 L 884 0 A 16 16 0 0 1 900 16 L 900 50 L 0 50 Z" fill="#0d1118" stroke="rgba(255,255,255,0.1)" />

    <!-- Mac Window Controls -->
    <circle cx="24" cy="25" r="6" fill="#ff5f56" />
    <circle cx="44" cy="25" r="6" fill="#ffbd2e" />
    <circle cx="64" cy="25" r="6" fill="#27c93f" />

    <!-- URL Bar -->
    <rect x="90" y="10" width="750" height="30" rx="6" fill="rgba(255,255,255,0.05)" />
    <svg x="100" y="17" width="16" height="16" viewBox="0 0 24 24" fill="none" stroke="rgba(255,255,255,0.4)" stroke-width="2">
      <rect x="3" y="11" width="18" height="11" rx="2" />
      <path d="M7 11V7a5 5 0 0 1 10 0v4" />
    </svg>
    <text x="126" y="29" fill="rgba(255,255,255,0.5)" font-size="12" class="text-mono">https://github.com/maxylev/proxyfoxy</text>

    <!-- PROXYFOXY Extension Button (Active) -->
    <g transform="translate(850, 10)">
      <rect width="30" height="30" rx="6" fill="rgba(249, 115, 22, 0.15)" stroke="rgba(249, 115, 22, 0.4)" />

      <!-- Extension Browser Icon -->
      <svg x="7" y="7" width="16" height="16" viewBox="27 33 346 326">
        <path fill="#FFFFFF" d="M77.397 33.101C77.133 33.53 75.357 43.008 74.515 48.485 69.502 81.114 70.035 115.462 76.086 149.719l1.12 6.338-11.41 11.533c-6.276 6.344-12.008 12.253-12.74 13.133l-1.329 1.6 6.752.035c3.714.018 7.255.163 7.869.32l1.116.285-2.392 1.623c-15.377 10.427-31.897 31.172-37.526 47.122-.567 1.607-.977 1.604 4.511.028 8.616-2.474 22.085-5.124 24.827-4.884l1.172.102-1.159 1.914c-8.252 13.626-14.23 32.071-15.713 48.484-.351 3.891-.649 3.7 2.72 1.75 7.999-4.631 16.126-7.711 23.07-8.744l1.423-.212-3.895 3.973c-2.143 2.186-3.896 4.111-3.896 4.278 0 .176 2.396.378 5.662.477 30.334.922 57.734 14.109 84.038 40.447l7.883 7.892-1.942-3.878c-17.511-34.978-48.213-65.872-73.95-74.412l-1.755-.582 1.436-.224c8.61-1.339 26.805.877 37.138 4.525 25.93 9.152 48.244 33.372 60.185 65.326.896 2.398 1.664 4.398 1.705 4.444.042.047.602-.135 1.244-.404 8.949-3.739 24.531-3.886 34.949-.329 1.302.444 2.39.772 2.418.729.028-.044.449-1.219.935-2.613 10.793-30.936 34.215-57.165 59.352-66.465 11.592-4.288 27.857-6.497 38.386-5.212l1.703.207-2.565.907c-22.629 8-48.736 32.461-66.782 62.57-2.273 3.793-8.221 14.827-8.221 15.253-.001.143 1.17-1.005 2.598-2.552 26.729-28.922 57.204-44.483 89.427-45.664l5.741-.211-4.121-4.226c-2.267-2.325-3.969-4.227-3.783-4.227 4.479 0 16.251 4.357 23.649 8.753 1.642.976 3.086 1.774 3.209 1.774.123 0 .046-1.83-.173-4.067-1.577-16.154-6.989-33.164-14.808-46.543-1.045-1.786-1.899-3.318-1.899-3.402 0-.794 17.573 2.624 25.993 5.056 2.63.76 4.826 1.337 4.881 1.282.055-.055-.698-1.945-1.674-4.2-7.085-16.375-21.146-33.604-35.886-43.974l-2.699-1.898 1.104-.282c.607-.155 4.142-.298 7.856-.316l6.752-.035-2.919-3.203c-1.605-1.762-7.448-7.724-12.983-13.251l-10.065-10.048 1.032-5.582c1.91-10.343 3.241-20.607 4.322-33.333.553-6.513.555-38.441.002-44.976-1.122-13.265-2.386-22.936-4.342-33.201-1.275-6.696-.774-6.168-4.361-4.589-27.168 11.955-54.37 33.199-84.218 65.772l-1.089 1.187-2.392-.471c-18.859-3.711-47.569-3.567-64.949.328-.543.121-1.533-.789-5.058-4.649-25.88-28.34-54.282-50.21-80.515-62-3.536-1.59-3.442-1.559-3.66-1.206Zm117.021 295.773c-5.69.729-12.154 2.98-16.61 5.787l-2.645 1.666.657.922c3.39 4.76 17.787 17.781 22.984 20.787l1.515.876 1.515-.881c5.192-3.021 14.351-11.114 21.179-18.714 2.999-3.338 2.974-2.757.193-4.478-8.046-4.978-18.911-7.229-28.788-5.965Z" />
        <path fill="#fb041b" d="M328.658 93.301 C 328.659 94.705,328.715 95.239,328.783 94.489 C 328.850 93.739,328.849 92.591,328.781 91.937 C 328.712 91.284,328.657 91.898,328.658 93.301 M105.582 209.250 L 105.582 233.174 200.000 233.174 L 294.418 233.174 L 294.418 209.250 L 294.418 185.327 L 200.000 185.327 L 105.582 185.327 L 105.582 209.250 Z" />
      </svg>
      <circle cx="30" cy="0" r="4" fill="#22c55e" stroke="#0d1118" stroke-width="2" />
    </g>

    <!-- Browser Main Content Area (Typography) -->
    <g transform="translate(50, 240)">
      <text font-size="80" font-weight="800" class="text-sans">
        <tspan fill="#f4f5f7">Proxy</tspan><tspan fill="#f97316">Foxy</tspan>
      </text>
      <g fill="#f4f5f7" font-size="36" font-weight="500" class="text-sans" transform="translate(0, 70)">
        <text y="0"><tspan fill="#f97316">-</tspan> Your</text>
        <text y="60"><tspan fill="#f97316">-</tspan> Secure</text>
        <text y="120"><tspan fill="#f97316">-</tspan> Residential</text>
        <text y="180"><tspan fill="#f97316">-</tspan> Customizable</text>
      </g>
    </g>
  </g>

  <!-- ================= POPUP EXTENSION ================= -->
  <!-- Popup Pointer -->
  <polygon points="915,100 923,110 907,110" fill="#07090d" />
  <line x1="907" y1="110" x2="923" y2="110" stroke="rgba(249,115,22,0.15)" stroke-width="1" />

  <g transform="translate(560, 110)">
    <!-- Popup Base Container -->
    <rect width="380" height="665" rx="12" fill="#07090d" stroke="rgba(249,115,22,0.15)" />

    <!-- Clipping group to keep elements inside border radius -->
    <g clip-path="url(#popup-clip)">
      <!-- Popup Background Grid -->
      <rect width="380" height="665" fill="url(#grid)" />

      <!-- Top Bar -->
      <g>
        <rect width="380" height="44" fill="#0d1118" />
        <line x1="0" y1="44" x2="380" y2="44" stroke="#1e2531" />

        <!-- Logo & Brand (White & Red SVG) -->
        <svg x="14" y="11" width="22" height="22" viewBox="27 33 346 326">
          <path fill="#FFFFFF" d="M77.397 33.101C77.133 33.53 75.357 43.008 74.515 48.485 69.502 81.114 70.035 115.462 76.086 149.719l1.12 6.338-11.41 11.533c-6.276 6.344-12.008 12.253-12.74 13.133l-1.329 1.6 6.752.035c3.714.018 7.255.163 7.869.32l1.116.285-2.392 1.623c-15.377 10.427-31.897 31.172-37.526 47.122-.567 1.607-.977 1.604 4.511.028 8.616-2.474 22.085-5.124 24.827-4.884l1.172.102-1.159 1.914c-8.252 13.626-14.23 32.071-15.713 48.484-.351 3.891-.649 3.7 2.72 1.75 7.999-4.631 16.126-7.711 23.07-8.744l1.423-.212-3.895 3.973c-2.143 2.186-3.896 4.111-3.896 4.278 0 .176 2.396.378 5.662.477 30.334.922 57.734 14.109 84.038 40.447l7.883 7.892-1.942-3.878c-17.511-34.978-48.213-65.872-73.95-74.412l-1.755-.582 1.436-.224c8.61-1.339 26.805.877 37.138 4.525 25.93 9.152 48.244 33.372 60.185 65.326.896 2.398 1.664 4.398 1.705 4.444.042.047.602-.135 1.244-.404 8.949-3.739 24.531-3.886 34.949-.329 1.302.444 2.39.772 2.418.729.028-.044.449-1.219.935-2.613 10.793-30.936 34.215-57.165 59.352-66.465 11.592-4.288 27.857-6.497 38.386-5.212l1.703.207-2.565.907c-22.629 8-48.736 32.461-66.782 62.57-2.273 3.793-8.221 14.827-8.221 15.253-.001.143 1.17-1.005 2.598-2.552 26.729-28.922 57.204-44.483 89.427-45.664l5.741-.211-4.121-4.226c-2.267-2.325-3.969-4.227-3.783-4.227 4.479 0 16.251 4.357 23.649 8.753 1.642.976 3.086 1.774 3.209 1.774.123 0 .046-1.83-.173-4.067-1.577-16.154-6.989-33.164-14.808-46.543-1.045-1.786-1.899-3.318-1.899-3.402 0-.794 17.573 2.624 25.993 5.056 2.63.76 4.826 1.337 4.881 1.282.055-.055-.698-1.945-1.674-4.2-7.085-16.375-21.146-33.604-35.886-43.974l-2.699-1.898 1.104-.282c.607-.155 4.142-.298 7.856-.316l6.752-.035-2.919-3.203c-1.605-1.762-7.448-7.724-12.983-13.251l-10.065-10.048 1.032-5.582c1.91-10.343 3.241-20.607 4.322-33.333.553-6.513.555-38.441.002-44.976-1.122-13.265-2.386-22.936-4.342-33.201-1.275-6.696-.774-6.168-4.361-4.589-27.168 11.955-54.37 33.199-84.218 65.772l-1.089 1.187-2.392-.471c-18.859-3.711-47.569-3.567-64.949.328-.543.121-1.533-.789-5.058-4.649-25.88-28.34-54.282-50.21-80.515-62-3.536-1.59-3.442-1.559-3.66-1.206Zm117.021 295.773c-5.69.729-12.154 2.98-16.61 5.787l-2.645 1.666.657.922c3.39 4.76 17.787 17.781 22.984 20.787l1.515.876 1.515-.881c5.192-3.021 14.351-11.114 21.179-18.714 2.999-3.338 2.974-2.757.193-4.478-8.046-4.978-18.911-7.229-28.788-5.965Z" />
          <path fill="#fb041b" d="M328.658 93.301 C 328.659 94.705,328.715 95.239,328.783 94.489 C 328.850 93.739,328.849 92.591,328.781 91.937 C 328.712 91.284,328.657 91.898,328.658 93.301 M105.582 209.250 L 105.582 233.174 200.000 233.174 L 294.418 233.174 L 294.418 209.250 L 294.418 185.327 L 200.000 185.327 L 105.582 185.327 L 105.582 209.250 Z" />
        </svg>
        <text x="44" y="26" fill="#f4f5f7" font-size="12" letter-spacing="1.5" class="text-mono uppercase">PROXY<tspan fill="#f97316" font-weight="700">FOXY</tspan></text>

        <!-- Online Pill -->
        <rect x="250" y="10" width="76" height="24" rx="12" fill="#0d1118" stroke="#1e2531" />
        <circle cx="262" cy="22" r="3" fill="#22c55e" class="status-dot" filter="url(#core-glow)" />
        <text x="272" y="26" fill="#8a93a6" font-size="10" letter-spacing="1.2" class="text-mono uppercase">Online</text>

        <!-- Theme Toggle -->
        <rect x="334" y="8" width="28" height="28" rx="8" fill="#141923" />
        <svg x="341" y="15" width="14" height="14" viewBox="0 0 24 24" fill="none" stroke="#f4f5f7" stroke-width="2">
          <circle cx="12" cy="12" r="4" />
          <path d="M12 2v2M12 20v2M4.93 4.93l1.41 1.41M17.66 17.66l1.41 1.41M2 12h2M20 12h2M6.34 17.66l-1.41 1.41M19.07 4.93l-1.41 1.41" />
        </svg>
      </g>

      <!-- Home View Content -->
      <g transform="translate(0, 44)">

        <!-- Proxy IP Pill -->
        <g transform="translate(190, 24)" text-anchor="middle">
          <rect x="-65" y="0" width="130" height="26" rx="13" fill="#0d1118" stroke="#1e2531" />
          <circle cx="-48" cy="13" r="3" fill="#22c55e" />
          <text x="5" y="17" fill="#8a93a6" font-size="10" letter-spacing="1.2" class="text-mono uppercase">145.223.7.53</text>
        </g>

        <!-- THE ORB (Active State) -->
        <g>
          <!-- Pulse rings -->
          <circle cx="190" cy="220" r="68" class="orb-pulse-1 ring-origin" />
          <circle cx="190" cy="220" r="68" class="orb-pulse-2 ring-origin" />

          <!-- Outer animated dash rings -->
          <circle cx="190" cy="220" r="115" class="orb-ring-1 ring-origin" fill="none" />
          <circle cx="190" cy="220" r="98" class="orb-ring-2 ring-origin" fill="none" />
          <circle cx="190" cy="220" r="80" class="orb-ring-3 ring-origin" fill="none" />

          <!-- Orb Core -->
          <circle cx="190" cy="220" r="65" fill="#0d1118" stroke="#22c55e" stroke-width="1.5" filter="url(#core-glow)" />

          <!-- Fox breathing logo -->
          <g class="orb-fox">
            <svg x="162" y="192" width="56" height="56" viewBox="27 33 346 326" fill="currentColor">
              <path d="M77.397 33.101C77.133 33.53 75.357 43.008 74.515 48.485 69.502 81.114 70.035 115.462 76.086 149.719l1.12 6.338-11.41 11.533c-6.276 6.344-12.008 12.253-12.74 13.133l-1.329 1.6 6.752.035c3.714.018 7.255.163 7.869.32l1.116.285-2.392 1.623c-15.377 10.427-31.897 31.172-37.526 47.122-.567 1.607-.977 1.604 4.511.028 8.616-2.474 22.085-5.124 24.827-4.884l1.172.102-1.159 1.914c-8.252 13.626-14.23 32.071-15.713 48.484-.351 3.891-.649 3.7 2.72 1.75 7.999-4.631 16.126-7.711 23.07-8.744l1.423-.212-3.895 3.973c-2.143 2.186-3.896 4.111-3.896 4.278 0 .176 2.396.378 5.662.477 30.334.922 57.734 14.109 84.038 40.447l7.883 7.892-1.942-3.878c-17.511-34.978-48.213-65.872-73.95-74.412l-1.755-.582 1.436-.224c8.61-1.339 26.805.877 37.138 4.525 25.93 9.152 48.244 33.372 60.185 65.326.896 2.398 1.664 4.398 1.705 4.444.042.047.602-.135 1.244-.404 8.949-3.739 24.531-3.886 34.949-.329 1.302.444 2.39.772 2.418.729.028-.044.449-1.219.935-2.613 10.793-30.936 34.215-57.165 59.352-66.465 11.592-4.288 27.857-6.497 38.386-5.212l1.703.207-2.565.907c-22.629 8-48.736 32.461-66.782 62.57-2.273 3.793-8.221 14.827-8.221 15.253-.001.143 1.17-1.005 2.598-2.552 26.729-28.922 57.204-44.483 89.427-45.664l5.741-.211-4.121-4.226c-2.267-2.325-3.969-4.227-3.783-4.227 4.479 0 16.251 4.357 23.649 8.753 1.642.976 3.086 1.774 3.209 1.774.123 0 .046-1.83-.173-4.067-1.577-16.154-6.989-33.164-14.808-46.543-1.045-1.786-1.899-3.318-1.899-3.402 0-.794 17.573 2.624 25.993 5.056 2.63.76 4.826 1.337 4.881 1.282.055-.055-.698-1.945-1.674-4.2-7.085-16.375-21.146-33.604-35.886-43.974l-2.699-1.898 1.104-.282c.607-.155 4.142-.298 7.856-.316l6.752-.035-2.919-3.203c-1.605-1.762-7.448-7.724-12.983-13.251l-10.065-10.048 1.032-5.582c1.91-10.343 3.241-20.607 4.322-33.333.553-6.513.555-38.441.002-44.976-1.122-13.265-2.386-22.936-4.342-33.201-1.275-6.696-.774-6.168-4.361-4.589-27.168 11.955-54.37 33.199-84.218 65.772l-1.089 1.187-2.392-.471c-18.859-3.711-47.569-3.567-64.949.328-.543.121-1.533-.789-5.058-4.649-25.88-28.34-54.282-50.21-80.515-62-3.536-1.59-3.442-1.559-3.66-1.206Zm117.021 295.773c-5.69.729-12.154 2.98-16.61 5.787l-2.645 1.666.657.922c3.39 4.76 17.787 17.781 22.984 20.787l1.515.876 1.515-.881c5.192-3.021 14.351-11.114 21.179-18.714 2.999-3.338 2.974-2.757.193-4.478-8.046-4.978-18.911-7.229-28.788-5.965Z" />
            </svg>
          </g>
        </g>

        <!-- Status Text -->
        <g transform="translate(190, 365)" text-anchor="middle">
          <text fill="#525a6b" font-size="10" letter-spacing="1.4" class="text-mono uppercase">Status</text>
          <text y="24" fill="#22c55e" font-size="20" font-weight="600" class="text-sans">Connected</text>
        </g>

        <!-- Active Profile Card -->
        <g transform="translate(16, 420)">
          <rect width="348" height="56" rx="12" fill="#0d1118" stroke="#1e2531" />
          <rect x="10" y="10" width="36" height="36" rx="10" fill="#141923" />
          <text x="28" y="34" font-size="20" text-anchor="middle" class="text-sans">🇫🇷</text>

          <text x="58" y="26" fill="#f4f5f7" font-size="13" font-weight="600" class="text-sans">France</text>
          <text x="58" y="42" fill="#8a93a6" font-size="10" class="text-mono">
            <tspan fill="#f97316" font-weight="600">RESIDENTIAL</tspan> 176.24.38.83:8003
          </text>

          <rect x="280" y="14" width="56" height="28" rx="8" fill="rgba(249,115,22,0.1)" />
          <text x="308" y="32" fill="#f97316" font-size="10" letter-spacing="1" font-weight="600" text-anchor="middle" class="text-mono uppercase">Change</text>
        </g>

        <!-- Network Stats with Animated Numbers -->
        <g transform="translate(16, 500)">
          <!-- Ping -->
          <rect x="0" y="0" width="112" height="52" rx="10" fill="#0d1118" stroke="#1e2531" />
          <text x="56" y="20" fill="#525a6b" font-size="9" letter-spacing="1" text-anchor="middle" class="text-mono uppercase">Ping</text>
          <g font-weight="600" fill="#f4f5f7" font-size="13" text-anchor="middle" class="text-mono">
            <text x="56" y="38" class="stat-val delay-0">24 ms</text>
            <text x="56" y="38" class="stat-val delay-2">21 ms</text>
            <text x="56" y="38" class="stat-val delay-4">26 ms</text>
          </g>

          <!-- Up -->
          <rect x="118" y="0" width="112" height="52" rx="10" fill="#0d1118" stroke="#1e2531" />
          <text x="174" y="20" fill="#525a6b" font-size="9" letter-spacing="1" text-anchor="middle" class="text-mono uppercase">Up</text>
          <g font-weight="600" fill="#f4f5f7" font-size="13" text-anchor="middle" class="text-mono">
            <text x="174" y="38" class="stat-val delay-0">1.4 MB</text>
            <text x="174" y="38" class="stat-val delay-2">1.7 MB</text>
            <text x="174" y="38" class="stat-val delay-4">2.2 MB</text>
          </g>

          <!-- Down -->
          <rect x="236" y="0" width="112" height="52" rx="10" fill="#0d1118" stroke="#1e2531" />
          <text x="292" y="20" fill="#525a6b" font-size="9" letter-spacing="1" text-anchor="middle" class="text-mono uppercase">Down</text>
          <g font-weight="600" fill="#f4f5f7" font-size="13" text-anchor="middle" class="text-mono">
            <text x="292" y="38" class="stat-val delay-0">8.2 MB</text>
            <text x="292" y="38" class="stat-val delay-2">9.4 MB</text>
            <text x="292" y="38" class="stat-val delay-4">11.1 MB</text>
          </g>
        </g>
      </g>

      <!-- Bottom Navigation -->
      <g transform="translate(0, 609)">
        <rect width="380" height="56" fill="#0d1118" />
        <line x1="0" y1="0" x2="380" y2="0" stroke="#1e2531" />

        <!-- Home (Active) -->
        <g transform="translate(0, 0)">
          <!-- Active Line -->
          <rect x="49" y="0" width="28" height="2" rx="1" fill="#f97316" />

          <svg x="54" y="12" width="18" height="18" viewBox="0 0 24 24" fill="none" stroke="#f97316" stroke-width="2" stroke-linejoin="round" stroke-linecap="round">
            <path d="M3 9.5L12 3l9 6.5V21H3V9.5z" />
            <path d="M9 21V12h6v9" />
          </svg>
          <text x="63" y="42" fill="#f97316" font-size="10" letter-spacing="0.8" text-anchor="middle" class="text-mono uppercase">Home</text>
        </g>

        <!-- Profiles -->
        <g transform="translate(126, 0)">
          <svg x="54" y="12" width="18" height="18" viewBox="0 0 24 24" fill="none" stroke="#525a6b" stroke-width="2">
            <rect x="3" y="4" width="18" height="6" rx="2" />
            <rect x="3" y="14" width="18" height="6" rx="2" />
            <circle cx="7" cy="7" r="1" fill="currentColor" />
            <circle cx="7" cy="17" r="1" fill="currentColor" />
          </svg>
          <text x="63" y="42" fill="#525a6b" font-size="10" letter-spacing="0.8" text-anchor="middle" class="text-mono uppercase">Profiles</text>
        </g>

        <!-- Settings -->
        <g transform="translate(252, 0)">
          <svg x="54" y="12" width="18" height="18" viewBox="0 0 24 24" fill="none" stroke="#525a6b" stroke-width="2">
            <circle cx="12" cy="12" r="3" />
            <path d="M19.4 15a1.7 1.7 0 0 0 .3 1.8l.1.1a2 2 0 1 1-2.8 2.8l-.1-.1a1.7 1.7 0 0 0-1.8-.3 1.7 1.7 0 0 0-1 1.5V21a2 2 0 0 1-4 0v-.1a1.7 1.7 0 0 0-1-1.5 1.7 1.7 0 0 0-1.8.3l-.1.1a2 2 0 1 1-2.8-2.8l.1-.1a1.7 1.7 0 0 0 .3-1.8 1.7 1.7 0 0 0-1.5-1H3a2 2 0 0 1 0-4h.1a1.7 1.7 0 0 0 1.5-1 1.7 1.7 0 0 0-.3-1.8l-.1-.1a2 2 0 1 1 2.8-2.8l.1.1a1.7 1.7 0 0 0 1.8.3 1.7 1.7 0 0 0 1-1.5V3a2 2 0 0 1 4 0v.1a1.7 1.7 0 0 0 1 1.5 1.7 1.7 0 0 0 1.8-.3l.1-.1a2 2 0 1 1 2.8 2.8l-.1.1a1.7 1.7 0 0 0-.3 1.8 1.7 1.7 0 0 0 1.5 1H21a2 2 0 0 1 0 4h-.1a1.7 1.7 0 0 0-1.5 1z" />
          </svg>
          <text x="63" y="42" fill="#525a6b" font-size="10" letter-spacing="0.8" text-anchor="middle" class="text-mono uppercase">Settings</text>
        </g>
      </g>
    </g>
  </g>
</svg>
